<?xml version="1.0" encoding="iso-8859-1"?>
<!-- Generator: Adobe Illustrator 19.0.0, SVG Export Plug-In . SVG Version: 6.00 Build 0)  -->
<svg version="1.1" id="Layer_1" xmlns="http://www.w3.org/2000/svg" xmlns:xlink="http://www.w3.org/1999/xlink" x="0px" y="0px"
	 viewBox="0 0 395.636 395.636" style="enable-background:new 0 0 395.636 395.636;" xml:space="preserve">
<path style="fill:#E1E6E9;" d="M312.501,155.152c7.434,72.339-53.139,132.913-126.125,126.125
	c-53.786-5.56-97.034-48.808-102.594-102.594c-6.788-72.921,53.786-133.495,126.125-126.125
	C263.693,58.117,306.941,101.366,312.501,155.152z"/>
<g>
	<path style="fill:#193651;" d="M49.778,219.475l-11.119,3.103c1.228,4.331,2.457,8.016,4.331,11.766l11.119-4.331
		C52.234,226.844,51.006,223.16,49.778,219.475z"/>
	<path style="fill:#193651;" d="M77.576,285.608c2.457,3.103,5.56,6.206,8.663,8.663l8.016-8.663
		c-2.457-2.457-5.56-5.56-8.016-8.016L77.576,285.608z"/>
	<path style="fill:#193651;" d="M153.018,18.554l-3.685-11.119c-3.685,0.646-8.016,2.457-11.766,3.685l4.331,11.119
		C145.584,21.01,149.333,19.782,153.018,18.554z"/>
	<path style="fill:#193651;" d="M59.022,240.485l-10.537,5.56c1.875,3.685,4.331,6.788,6.206,10.537l9.891-6.206
		C62.772,247.273,60.897,243.588,59.022,240.485z"/>
	<path style="fill:#193651;" d="M71.434,259.62l-9.891,6.788c2.457,3.685,4.978,6.788,7.434,9.891l9.244-7.434
		C75.766,265.826,73.891,262.723,71.434,259.62z"/>
	<path style="fill:#193651;" d="M123.863,306.101c-0.84-0.453-1.616-0.905-2.392-1.358l-5.56,10.537
		c3.685,1.875,7.434,3.685,11.119,5.56l0.517-1.358C125.414,315.475,124.057,311.143,123.863,306.101z"/>
	<path style="fill:#193651;" d="M95.547,301.64c3.103,2.457,6.206,4.978,9.891,7.434l6.788-9.891
		c-3.103-2.457-6.206-4.331-9.244-6.788L95.547,301.64z"/>
	<path style="fill:#193651;" d="M44.218,197.172l-11.766,2.457c0.646,3.685,1.228,8.016,2.457,11.766l11.766-3.103
		C45.446,204.606,44.8,200.921,44.218,197.172z"/>
	<path style="fill:#193651;" d="M41.762,174.352l-11.766,0.646c0,4.331,0,8.016,0.646,12.347l11.766-1.875
		C42.343,181.721,41.762,178.036,41.762,174.352z"/>
	<path style="fill:#193651;" d="M361.438,150.044l4.267-0.453c-0.129-1.034-0.323-2.133-0.453-3.168
		C364.024,147.717,362.796,148.945,361.438,150.044z"/>
	<path style="fill:#193651;" d="M221.608,1.875c-4.331-0.646-8.016-1.228-12.347-1.228l-0.646,11.766
		c4.331,0,8.016,0.646,11.766,1.228L221.608,1.875z"/>
	<path style="fill:#193651;" d="M311.273,276.945l8.663,8.016c2.457-3.103,5.56-6.206,8.016-9.244l-9.244-7.434
		C316.186,271.386,313.729,274.489,311.273,276.945z"/>
	<path style="fill:#193651;" d="M325.495,259.038l9.891,6.788c2.457-3.103,4.913-6.788,6.206-9.891l-9.891-6.206
		C329.826,252.832,327.952,255.935,325.495,259.038z"/>
	<path style="fill:#193651;" d="M293.947,292.396l7.434,9.244c3.103-2.457,6.206-5.56,9.244-8.016l-8.016-8.663
		C300.154,287.483,297.051,289.939,293.947,292.396z"/>
	<path style="fill:#193651;" d="M275.394,304.743l5.56,10.537c3.685-2.457,7.434-4.331,11.119-6.788l-6.788-9.891
		C282.182,301.059,278.497,302.933,275.394,304.743z"/>
	<path style="fill:#193651;" d="M337.842,239.257l10.537,5.56c1.875-3.685,3.685-7.434,5.56-11.766l-11.119-4.331
		C340.945,232.404,339.717,236.154,337.842,239.257z"/>
	<path style="fill:#193651;" d="M352.065,196.59l11.766,1.875c0.646-3.685,1.228-8.016,1.875-11.766l-11.766-1.228
		C353.293,189.156,352.711,192.84,352.065,196.59z"/>
	<path style="fill:#193651;" d="M346.505,218.246l11.119,4.331c1.228-4.331,2.457-8.016,3.685-12.347l-11.766-3.103
		C348.962,210.812,347.733,214.497,346.505,218.246z"/>
	<path style="fill:#193651;" d="M161.681,3.685l2.457,11.766c3.685-0.646,7.434-1.228,11.766-2.457l-1.875-11.766
		C169.697,1.875,165.366,3.103,161.681,3.685z"/>
	<path style="fill:#193651;" d="M198.141,11.766V0c-4.331,0-8.016,0-12.347,0.646l0.646,11.766
		C190.707,11.766,194.457,11.766,198.141,11.766z"/>
	<path style="fill:#193651;" d="M245.721,6.788c-3.685-1.228-8.016-2.457-11.766-3.103l-2.457,11.766
		c3.685,1.228,7.434,1.875,11.119,3.103L245.721,6.788z"/>
</g>
<path style="fill:#FFFFFF;" d="M90.57,18.554c42.02,0,76.671,34.004,76.671,76.024c0,30.319-17.325,56.242-42.667,68.59
	l-12.347,30.319L74.537,170.02c-34.651-7.434-60.638-38.335-60.638-74.796C13.899,52.558,47.903,18.554,90.57,18.554z"/>
<path style="fill:#193651;" d="M130.004,22.432l-2.974-6.335c-1.681,0.84-3.362,1.681-5.042,2.521
	c-9.697-4.008-20.299-6.206-31.483-6.206c-45.77,0-82.812,37.107-82.812,82.23c0,21.592,8.663,41.632,22.82,56.566
	c-0.129,3.685-0.582,6.982-0.582,10.796l11.766,0.646c0-0.517,0-1.034,0.065-1.552c8.857,6.529,19.135,11.313,30.255,13.964
	l42.667,27.216l14.222-34.651c27.216-14.804,43.895-42.02,43.895-72.921C172.8,63.612,155.604,36.396,130.004,22.432z
	 M121.471,157.608l-1.875,1.228l-10.473,25.406l-32.129-20.428h-1.228c-32.129-6.788-55.661-35.879-55.661-69.236
	c0-38.917,31.547-70.465,70.465-70.465s70.465,31.547,70.465,70.465C161.034,121.147,145.584,145.907,121.471,157.608z"/>
<path style="fill:#FFFFFF;" d="M305.713,18.554c-42.02,0-76.671,34.004-76.671,76.024c0,30.319,17.325,56.242,42.667,68.59
	l12.347,30.319l37.689-23.467c34.586-7.434,60.574-38.335,60.574-74.796C382.384,52.558,348.38,18.554,305.713,18.554z"/>
<g>
	<polygon style="fill:#193651;" points="354.521,173.123 366.287,173.705 366.287,161.358 354.521,161.939 	"/>
	<path style="fill:#193651;" d="M387.943,94.578c0-45.123-36.461-82.23-82.23-82.23c-14.287,0-27.798,3.749-39.564,10.279
		l3.103-6.529c-3.685-1.875-7.434-3.685-11.119-4.913l-4.331,11.119c2.78,0.905,5.236,1.875,7.887,3.038
		c-22.885,14.675-38.141,40.339-38.141,69.301c0,30.901,16.679,58.699,43.895,72.921l14.222,34.651l42.02-27.216
		C360.727,166.271,387.943,132.913,387.943,94.578z M320.517,163.814h-1.228l-32.129,20.428l-10.537-25.341l-1.875-1.228
		c-24.76-11.766-39.564-35.879-39.564-63.03c0-38.917,31.547-70.465,70.465-70.465s70.465,31.547,70.465,70.465
		C376.178,127.935,352.711,157.026,320.517,163.814z"/>
</g>
<path style="fill:#FFFFFF;" d="M198.141,211.394c-42.02,0-76.671,34.004-76.671,76.671c0,30.319,17.325,56.242,42.667,68.59
	l12.347,30.319l37.689-23.467c34.586-7.434,60.574-38.335,60.574-74.796C274.812,246.044,240.162,211.394,198.141,211.394z"/>
<path style="fill:#193651;" d="M174.028,395.636l-14.222-34.586c-27.216-14.222-43.895-42.02-43.895-72.921
	c0-45.77,37.107-82.23,82.23-82.23c45.77,0,82.23,37.107,82.23,82.23c0,38.335-27.216,71.693-64.259,80.356L174.028,395.636z
	 M198.141,217.6c-38.917,0-70.465,31.547-70.465,70.465c0,27.216,14.804,51.329,39.564,63.03l1.875,1.228l10.537,25.341
	l32.129-20.428h1.228c32.129-6.788,55.661-35.879,55.661-69.236C268.606,249.147,237.059,217.6,198.141,217.6z"/>
<g>
	<circle style="fill:#2EA2DB;" cx="90.57" cy="60.574" r="16.679"/>
	<path style="fill:#2EA2DB;" d="M50.424,127.935C51.653,106.279,68.978,89.6,90.634,89.6s38.917,16.679,40.21,38.335H50.424z"/>
</g>
<g>
	<circle style="fill:#FDBF5E;" cx="305.713" cy="60.574" r="16.679"/>
	<path style="fill:#FDBF5E;" d="M345.859,127.935c-1.228-21.657-18.554-38.335-40.21-38.335c-21.657,0-38.917,16.679-40.21,38.335
		H345.859z"/>
</g>
<g>
	<circle style="fill:#F16051;" cx="198.141" cy="253.479" r="16.679"/>
	<path style="fill:#F16051;" d="M238.352,321.487c-1.228-21.657-18.554-38.335-40.21-38.335s-38.917,16.679-40.21,38.335H238.352z"
		/>
</g>
<g>
</g>
<g>
</g>
<g>
</g>
<g>
</g>
<g>
</g>
<g>
</g>
<g>
</g>
<g>
</g>
<g>
</g>
<g>
</g>
<g>
</g>
<g>
</g>
<g>
</g>
<g>
</g>
<g>
</g>
</svg>
