<?xml version="1.0" encoding="UTF-8" standalone="no"?>
<svg width="78px" height="69px" viewBox="0 0 78 69" version="1.1" xmlns="http://www.w3.org/2000/svg" xmlns:xlink="http://www.w3.org/1999/xlink">
    <!-- Generator: Sketch 43.2 (39069) - http://www.bohemiancoding.com/sketch -->
    <title>Group 3</title>
    <desc>Created with Sketch.</desc>
    <defs>
        <rect id="path-1" x="0" y="0" width="1000.312" height="256.601"></rect>
        <rect id="path-3" x="0" y="0" width="1000.312" height="256.601"></rect>
        <rect id="path-5" x="0" y="0" width="1000.312" height="256.601"></rect>
    </defs>
    <g id="Page-1" stroke="none" stroke-width="1" fill="none" fill-rule="evenodd">
        <g id="social+flomni2" transform="translate(-460.000000, -163.000000)">
            <g id="Group-3">
                <g id="Group-2">
                    <g id="Clipped">
                        <mask id="mask-2" fill="white">
                            <use xlink:href="#path-1"></use>
                        </mask>
                        <g id="SVGID_1_"></g>
                        <g id="Group" mask="url(#mask-2)" fill-rule="nonzero">
                            <g transform="translate(460.000000, 163.000000)" id="Shape">
                                <path d="M77.144,63.989 C77.144,66.351 75.229,68.266 72.867,68.266 L5.133,68.266 C2.771,68.266 0.856,66.351 0.856,63.989 L0.856,7.866 C0.856,5.504 2.771,3.589 5.133,3.589 L72.867,3.589 C75.229,3.589 77.144,5.504 77.144,7.866 L77.144,63.989 Z" fill="#373D49" opacity="0.3"></path>
                                <path d="M72.124,58.483 C72.124,60.534 70.462,62.197 68.41,62.197 L9.588,62.197 C7.537,62.197 5.874,60.535 5.874,58.483 L5.874,9.745 C5.874,7.694 7.536,6.031 9.588,6.031 L68.41,6.031 C70.461,6.031 72.124,7.693 72.124,9.745 L72.124,58.483 Z" fill="#3D3D3D"></path>
                                <path d="M72.124,53.391 C72.124,55.442 70.462,57.105 68.41,57.105 L9.588,57.105 C7.537,57.105 5.874,55.443 5.874,53.391 L5.874,4.653 C5.874,2.602 7.536,0.939 9.588,0.939 L68.41,0.939 C70.461,0.939 72.124,2.601 72.124,4.653 L72.124,53.391 Z" fill="#5D5D5D"></path>
                            </g>
                        </g>
                    </g>
                    <g id="Clipped">
                        <mask id="mask-4" fill="white">
                            <use xlink:href="#path-3"></use>
                        </mask>
                        <g id="SVGID_1_"></g>
                        <g id="Group" mask="url(#mask-4)" fill-rule="nonzero" fill="#FFFFFF">
                            <g transform="translate(488.000000, 171.000000)" id="Shape">
                                <path d="M16.642,1.172 L16.222,2.516 L15.801,3.863 L15.415,5.098 L15.029,6.333 L14.643,7.568 L14.257,8.803 L17.344,8.803 L16.325,11.161 L15.306,13.519 L14.287,15.877 L13.268,18.235 L12.249,20.593 L11.23,22.951 L11.022,23.433 C11.334,23.447 11.65,23.457 11.976,23.457 C19.637,23.457 23.468,19.642 23.468,12.011 C23.47,6.132 21.192,2.52 16.642,1.172 Z"></path>
                                <path d="M9.739,21.293 L9.875,19.699 L10.011,18.105 L10.079,17.308 L10.147,16.511 L10.215,15.714 L10.283,14.917 L8.692,14.917 L7.101,14.917 L7.389,13.917 L7.677,12.917 L8.251,10.918 L8.825,8.919 L9.113,7.919 L9.401,6.919 L9.689,5.919 L9.977,4.919 L10.265,3.919 L10.553,2.919 L10.889,1.749 L11.225,0.579 C7.662,0.703 4.989,1.717 3.207,3.623 C1.425,5.528 0.534,8.324 0.534,12.011 C0.534,13.447 0.669,14.746 0.938,15.911 C1.207,17.076 1.613,18.107 2.153,19.001 L1.868,22.993 L6.086,22.399 C6.596,22.622 7.141,22.809 7.722,22.96 C8.302,23.113 8.918,23.228 9.569,23.31 L9.586,23.097 L9.604,22.884 L9.672,22.087 L9.739,21.293 Z"></path>
                            </g>
                        </g>
                    </g>
                </g>
                <g id="Clipped">
                    <mask id="mask-6" fill="white">
                        <use xlink:href="#path-5"></use>
                    </mask>
                    <g id="SVGID_1_"></g>
                    <text id="Flomni" fill="#FFFFFF" mask="url(#mask-6)" font-family="Helvetica" font-size="14" font-weight="normal">
                        <tspan x="479.1962" y="210.4115">Flomni</tspan>
                    </text>
                </g>
            </g>
        </g>
    </g>
</svg>