<?xml version="1.0" encoding="utf-8"?>
<!-- Generator: Adobe Illustrator 17.0.0, SVG Export Plug-In . SVG Version: 6.00 Build 0)  -->
<!DOCTYPE svg PUBLIC "-//W3C//DTD SVG 1.1//EN" "http://www.w3.org/Graphics/SVG/1.1/DTD/svg11.dtd">
<svg version="1.1" id="Слой_1" xmlns="http://www.w3.org/2000/svg" xmlns:xlink="http://www.w3.org/1999/xlink" x="0px" y="0px"
	 width="350px" height="640px" viewBox="0 0 350 640" enable-background="new 0 0 350 640" xml:space="preserve">
<g>
	<g>
		<g>
			<g>
				<g>
					<g>
						<g>
							<linearGradient id="SVGID_1_" gradientUnits="userSpaceOnUse" x1="52.0276" y1="103.2125" x2="52.0276" y2="123.8092">
								<stop  offset="0" style="stop-color:#B4B5B6"/>
								<stop  offset="0.0449" style="stop-color:#B8B9BA"/>
								<stop  offset="0.0929" style="stop-color:#C5C6C7"/>
								<stop  offset="0.1422" style="stop-color:#DADBDC"/>
								<stop  offset="0.1668" style="stop-color:#E8E8E9"/>
								<stop  offset="0.2387" style="stop-color:#EAEAEB"/>
								<stop  offset="0.2561" style="stop-color:#EDEDEE"/>
								<stop  offset="0.2786" style="stop-color:#EBEBEC"/>
								<stop  offset="0.2868" style="stop-color:#E4E5E6"/>
								<stop  offset="0.2926" style="stop-color:#D9D9DB"/>
								<stop  offset="0.2972" style="stop-color:#C8C9CB"/>
								<stop  offset="0.2996" style="stop-color:#BCBEC0"/>
								<stop  offset="0.4993" style="stop-color:#929394"/>
								<stop  offset="0.5554" style="stop-color:#858687"/>
								<stop  offset="0.6067" style="stop-color:#898A8B"/>
								<stop  offset="0.6597" style="stop-color:#969697"/>
								<stop  offset="0.7135" style="stop-color:#AAABAC"/>
								<stop  offset="0.7675" style="stop-color:#C7C7C8"/>
								<stop  offset="0.8084" style="stop-color:#E2E2E3"/>
								<stop  offset="0.8107" style="stop-color:#E5E5E6"/>
								<stop  offset="0.8251" style="stop-color:#F2F2F2"/>
								<stop  offset="0.8436" style="stop-color:#FAFAFA"/>
								<stop  offset="0.8804" style="stop-color:#FCFCFC"/>
								<stop  offset="0.8893" style="stop-color:#EDEEEE"/>
								<stop  offset="0.9047" style="stop-color:#DBDCDC"/>
								<stop  offset="0.9231" style="stop-color:#CFCFD0"/>
								<stop  offset="0.9473" style="stop-color:#C7C8C9"/>
								<stop  offset="1" style="stop-color:#C5C6C7"/>
							</linearGradient>
							<path fill="url(#SVGID_1_)" d="M55.594,121.14c0,1.97-1.596,3.567-3.567,3.567l0,0c-1.97,0-3.566-1.597-3.566-3.567v-15.606
								c0-1.97,1.596-3.567,3.566-3.567l0,0c1.971,0,3.567,1.597,3.567,3.567V121.14z"/>
							<linearGradient id="SVGID_2_" gradientUnits="userSpaceOnUse" x1="56.04" y1="149.2971" x2="56.04" y2="187.2598">
								<stop  offset="0" style="stop-color:#B4B5B6"/>
								<stop  offset="0.0449" style="stop-color:#B8B9BA"/>
								<stop  offset="0.0929" style="stop-color:#C5C6C7"/>
								<stop  offset="0.1422" style="stop-color:#DADBDC"/>
								<stop  offset="0.1668" style="stop-color:#E8E8E9"/>
								<stop  offset="0.2387" style="stop-color:#EAEAEB"/>
								<stop  offset="0.2561" style="stop-color:#EDEDEE"/>
								<stop  offset="0.2786" style="stop-color:#EBEBEC"/>
								<stop  offset="0.2868" style="stop-color:#E4E5E6"/>
								<stop  offset="0.2926" style="stop-color:#D9D9DB"/>
								<stop  offset="0.2972" style="stop-color:#C8C9CB"/>
								<stop  offset="0.2996" style="stop-color:#BCBEC0"/>
								<stop  offset="0.4993" style="stop-color:#929394"/>
								<stop  offset="0.5554" style="stop-color:#858687"/>
								<stop  offset="0.6067" style="stop-color:#898A8B"/>
								<stop  offset="0.6597" style="stop-color:#969697"/>
								<stop  offset="0.7135" style="stop-color:#AAABAC"/>
								<stop  offset="0.7675" style="stop-color:#C7C7C8"/>
								<stop  offset="0.8084" style="stop-color:#E2E2E3"/>
								<stop  offset="0.8107" style="stop-color:#E5E5E6"/>
								<stop  offset="0.8251" style="stop-color:#F2F2F2"/>
								<stop  offset="0.8436" style="stop-color:#FAFAFA"/>
								<stop  offset="0.8804" style="stop-color:#FCFCFC"/>
								<stop  offset="0.8893" style="stop-color:#EDEEEE"/>
								<stop  offset="0.9047" style="stop-color:#DBDCDC"/>
								<stop  offset="0.9231" style="stop-color:#CFCFD0"/>
								<stop  offset="0.9473" style="stop-color:#C7C8C9"/>
								<stop  offset="1" style="stop-color:#C5C6C7"/>
							</linearGradient>
							<path fill="url(#SVGID_2_)" d="M63.174,181.781c0,3.94-3.192,7.134-7.133,7.134l0,0c-3.941,0-7.135-3.194-7.135-7.134
								v-27.645c0-3.94,3.194-7.134,7.135-7.134l0,0c3.941,0,7.133,3.194,7.133,7.134V181.781z"/>
							<linearGradient id="SVGID_3_" gradientUnits="userSpaceOnUse" x1="56.04" y1="196.36" x2="56.04" y2="234.3227">
								<stop  offset="0" style="stop-color:#B4B5B6"/>
								<stop  offset="0.0449" style="stop-color:#B8B9BA"/>
								<stop  offset="0.0929" style="stop-color:#C5C6C7"/>
								<stop  offset="0.1422" style="stop-color:#DADBDC"/>
								<stop  offset="0.1668" style="stop-color:#E8E8E9"/>
								<stop  offset="0.2387" style="stop-color:#EAEAEB"/>
								<stop  offset="0.2561" style="stop-color:#EDEDEE"/>
								<stop  offset="0.2786" style="stop-color:#EBEBEC"/>
								<stop  offset="0.2868" style="stop-color:#E4E5E6"/>
								<stop  offset="0.2926" style="stop-color:#D9D9DB"/>
								<stop  offset="0.2972" style="stop-color:#C8C9CB"/>
								<stop  offset="0.2996" style="stop-color:#BCBEC0"/>
								<stop  offset="0.4993" style="stop-color:#929394"/>
								<stop  offset="0.5554" style="stop-color:#858687"/>
								<stop  offset="0.6067" style="stop-color:#898A8B"/>
								<stop  offset="0.6597" style="stop-color:#969697"/>
								<stop  offset="0.7135" style="stop-color:#AAABAC"/>
								<stop  offset="0.7675" style="stop-color:#C7C7C8"/>
								<stop  offset="0.8084" style="stop-color:#E2E2E3"/>
								<stop  offset="0.8107" style="stop-color:#E5E5E6"/>
								<stop  offset="0.8251" style="stop-color:#F2F2F2"/>
								<stop  offset="0.8436" style="stop-color:#FAFAFA"/>
								<stop  offset="0.8804" style="stop-color:#FCFCFC"/>
								<stop  offset="0.8893" style="stop-color:#EDEEEE"/>
								<stop  offset="0.9047" style="stop-color:#DBDCDC"/>
								<stop  offset="0.9231" style="stop-color:#CFCFD0"/>
								<stop  offset="0.9473" style="stop-color:#C7C8C9"/>
								<stop  offset="1" style="stop-color:#C5C6C7"/>
							</linearGradient>
							<path fill="url(#SVGID_3_)" d="M63.174,228.844c0,3.94-3.192,7.135-7.133,7.135l0,0c-3.941,0-7.135-3.194-7.135-7.135
								v-27.645c0-3.94,3.194-7.134,7.135-7.134l0,0c3.941,0,7.133,3.194,7.133,7.134V228.844z"/>
							<linearGradient id="SVGID_4_" gradientUnits="userSpaceOnUse" x1="304.6143" y1="149.1852" x2="304.6143" y2="187.1479">
								<stop  offset="0" style="stop-color:#B4B5B6"/>
								<stop  offset="0.0449" style="stop-color:#B8B9BA"/>
								<stop  offset="0.0929" style="stop-color:#C5C6C7"/>
								<stop  offset="0.1422" style="stop-color:#DADBDC"/>
								<stop  offset="0.1668" style="stop-color:#E8E8E9"/>
								<stop  offset="0.2387" style="stop-color:#EAEAEB"/>
								<stop  offset="0.2561" style="stop-color:#EDEDEE"/>
								<stop  offset="0.2786" style="stop-color:#EBEBEC"/>
								<stop  offset="0.2868" style="stop-color:#E4E5E6"/>
								<stop  offset="0.2926" style="stop-color:#D9D9DB"/>
								<stop  offset="0.2972" style="stop-color:#C8C9CB"/>
								<stop  offset="0.2996" style="stop-color:#BCBEC0"/>
								<stop  offset="0.4993" style="stop-color:#929394"/>
								<stop  offset="0.5554" style="stop-color:#858687"/>
								<stop  offset="0.6067" style="stop-color:#898A8B"/>
								<stop  offset="0.6597" style="stop-color:#969697"/>
								<stop  offset="0.7135" style="stop-color:#AAABAC"/>
								<stop  offset="0.7675" style="stop-color:#C7C7C8"/>
								<stop  offset="0.8084" style="stop-color:#E2E2E3"/>
								<stop  offset="0.8107" style="stop-color:#E5E5E6"/>
								<stop  offset="0.8251" style="stop-color:#F2F2F2"/>
								<stop  offset="0.8436" style="stop-color:#FAFAFA"/>
								<stop  offset="0.8804" style="stop-color:#FCFCFC"/>
								<stop  offset="0.8893" style="stop-color:#EDEEEE"/>
								<stop  offset="0.9047" style="stop-color:#DBDCDC"/>
								<stop  offset="0.9231" style="stop-color:#CFCFD0"/>
								<stop  offset="0.9473" style="stop-color:#C7C8C9"/>
								<stop  offset="1" style="stop-color:#C5C6C7"/>
							</linearGradient>
							<path fill="url(#SVGID_4_)" d="M311.749,181.669c0,3.94-3.192,7.134-7.134,7.134l0,0c-3.94,0-7.134-3.194-7.134-7.134
								v-27.645c0-3.94,3.194-7.135,7.134-7.135l0,0c3.942,0,7.134,3.194,7.134,7.135V181.669z"/>
						</g>
						<linearGradient id="SVGID_5_" gradientUnits="userSpaceOnUse" x1="32.5072" y1="273.0577" x2="333.0683" y2="328.9387">
							<stop  offset="0" style="stop-color:#BCBEC0"/>
							<stop  offset="1" style="stop-color:#BCBEC0"/>
						</linearGradient>
						<path fill="url(#SVGID_5_)" d="M309.987,521.887c0,24.551-19.902,44.452-44.454,44.452H94.98
							c-24.551,0-44.453-19.901-44.453-44.452V79.169c0-24.551,19.902-44.453,44.453-44.453h170.554
							c24.551,0,44.454,19.902,44.454,44.453V521.887z"/>
						<linearGradient id="SVGID_6_" gradientUnits="userSpaceOnUse" x1="30.8898" y1="14.5502" x2="337.7885" y2="602.1404">
							<stop  offset="0" style="stop-color:#BCBEC0"/>
							<stop  offset="0.3133" style="stop-color:#E7E7E2"/>
							<stop  offset="0.3403" style="stop-color:#EBEBE5"/>
							<stop  offset="0.6577" style="stop-color:#EDEDE8"/>
							<stop  offset="1" style="stop-color:#BCBEC0"/>
						</linearGradient>
						<path fill="url(#SVGID_6_)" d="M308.232,519.797c0,24.319-19.633,44.033-43.851,44.033H96.132
							c-24.219,0-43.851-19.714-43.851-44.033V81.259c0-24.32,19.633-44.034,43.851-44.034h168.249
							c24.218,0,43.851,19.714,43.851,44.034V519.797z"/>
						<path fill="#F5F5F5" d="M306.91,518.173c0,24.138-19.43,43.707-43.4,43.707H97.001c-23.968,0-43.399-19.569-43.399-43.707
							V82.884c0-24.139,19.431-43.707,43.399-43.707H263.51c23.97,0,43.4,19.568,43.4,43.707V518.173z"/>
						<g opacity="0.5">
							<linearGradient id="SVGID_7_" gradientUnits="userSpaceOnUse" x1="52.3442" y1="503.2491" x2="57.2807" y2="503.2491">
								<stop  offset="0" style="stop-color:#6B6B6B"/>
								<stop  offset="0.2526" style="stop-color:#939393;stop-opacity:0.7474"/>
								<stop  offset="0.7642" style="stop-color:#E1E1E1;stop-opacity:0.2358"/>
								<stop  offset="1" style="stop-color:#FFFFFF;stop-opacity:0"/>
							</linearGradient>
							<rect x="52.344" y="499.143" fill="url(#SVGID_7_)" width="4.937" height="8.213"/>
							<linearGradient id="SVGID_8_" gradientUnits="userSpaceOnUse" x1="52.3442" y1="82.501" x2="57.2807" y2="82.501">
								<stop  offset="0" style="stop-color:#6B6B6B"/>
								<stop  offset="0.2526" style="stop-color:#939393;stop-opacity:0.7474"/>
								<stop  offset="0.7642" style="stop-color:#E1E1E1;stop-opacity:0.2358"/>
								<stop  offset="1" style="stop-color:#FFFFFF;stop-opacity:0"/>
							</linearGradient>
							<rect x="52.344" y="78.395" fill="url(#SVGID_8_)" width="4.937" height="8.213"/>
							
								<linearGradient id="SVGID_9_" gradientUnits="userSpaceOnUse" x1="964.752" y1="503.2491" x2="969.6875" y2="503.2491" gradientTransform="matrix(-1 0 0 1 1272.1504 0)">
								<stop  offset="0" style="stop-color:#6B6B6B"/>
								<stop  offset="0.2526" style="stop-color:#939393;stop-opacity:0.7474"/>
								<stop  offset="0.7642" style="stop-color:#E1E1E1;stop-opacity:0.2358"/>
								<stop  offset="1" style="stop-color:#FFFFFF;stop-opacity:0"/>
							</linearGradient>
							<rect x="302.463" y="499.143" fill="url(#SVGID_9_)" width="4.935" height="8.213"/>
							
								<linearGradient id="SVGID_10_" gradientUnits="userSpaceOnUse" x1="964.752" y1="82.501" x2="969.6875" y2="82.501" gradientTransform="matrix(-1 0 0 1 1272.1504 0)">
								<stop  offset="0" style="stop-color:#6B6B6B"/>
								<stop  offset="0.2526" style="stop-color:#939393;stop-opacity:0.7474"/>
								<stop  offset="0.7642" style="stop-color:#E1E1E1;stop-opacity:0.2358"/>
								<stop  offset="1" style="stop-color:#FFFFFF;stop-opacity:0"/>
							</linearGradient>
							<rect x="302.463" y="78.395" fill="url(#SVGID_10_)" width="4.935" height="8.213"/>
						</g>
						<g>
							
								<image overflow="visible" width="424" height="2397" xlink:href="88A3373CCA28DD73.png"  transform="matrix(0.24 0 0 0.24 235.3076 11.4907)">
							</image>
						</g>
					</g>
					<g>
						<radialGradient id="SVGID_11_" cx="191.6514" cy="51.5406" r="3.1939" gradientUnits="userSpaceOnUse">
							<stop  offset="0" style="stop-color:#363636"/>
							<stop  offset="1" style="stop-color:#000100"/>
						</radialGradient>
						<circle fill="url(#SVGID_11_)" cx="191.651" cy="51.541" r="3.194"/>
						<radialGradient id="SVGID_12_" cx="150.3553" cy="69.4912" r="4.6249" gradientUnits="userSpaceOnUse">
							<stop  offset="0" style="stop-color:#124492"/>
							<stop  offset="1" style="stop-color:#000100"/>
						</radialGradient>
						<circle fill="url(#SVGID_12_)" cx="150.355" cy="69.491" r="4.625"/>
						<radialGradient id="SVGID_13_" cx="150.3548" cy="69.4907" r="3.7174" gradientUnits="userSpaceOnUse">
							<stop  offset="0" style="stop-color:#124492"/>
							<stop  offset="0.1285" style="stop-color:#11418B"/>
							<stop  offset="0.3146" style="stop-color:#0F3878"/>
							<stop  offset="0.5355" style="stop-color:#0B2A58"/>
							<stop  offset="0.7811" style="stop-color:#06162D"/>
							<stop  offset="1" style="stop-color:#000100"/>
						</radialGradient>
						<circle fill="url(#SVGID_13_)" cx="150.355" cy="69.491" r="3.717"/>
						<linearGradient id="SVGID_14_" gradientUnits="userSpaceOnUse" x1="191.7945" y1="66.6796" x2="191.7945" y2="70.8691">
							<stop  offset="0" style="stop-color:#BCBEC0"/>
							<stop  offset="0.0115" style="stop-color:#BFC1C3"/>
							<stop  offset="0.1377" style="stop-color:#DBDCDD"/>
							<stop  offset="0.2645" style="stop-color:#EFEFF0"/>
							<stop  offset="0.3911" style="stop-color:#FBFBFB"/>
							<stop  offset="0.5175" style="stop-color:#FFFFFF"/>
							<stop  offset="0.6276" style="stop-color:#FAFAFB"/>
							<stop  offset="0.7531" style="stop-color:#EDEDEE"/>
							<stop  offset="0.8857" style="stop-color:#D6D7D8"/>
							<stop  offset="1" style="stop-color:#BCBEC0"/>
						</linearGradient>
						<path fill="url(#SVGID_14_)" d="M214.48,68.739c0,1.277-1.036,2.313-2.314,2.313h-40.745c-1.275,0-2.312-1.036-2.312-2.313
							l0,0c0-1.277,1.037-2.312,2.312-2.312h40.745C213.444,66.426,214.48,67.461,214.48,68.739L214.48,68.739z"/>
						<linearGradient id="SVGID_15_" gradientUnits="userSpaceOnUse" x1="191.7939" y1="67.226" x2="191.7939" y2="70.3033">
							<stop  offset="0" style="stop-color:#959597"/>
							<stop  offset="0.8263" style="stop-color:#373435"/>
							<stop  offset="1" style="stop-color:#231F20"/>
						</linearGradient>
						<path fill="url(#SVGID_15_)" d="M213.957,68.739c0,0.938-1.012,1.699-2.259,1.699H171.89c-1.245,0-2.259-0.76-2.259-1.699l0,0
							c0-0.938,1.014-1.699,2.259-1.699h39.808C212.945,67.04,213.957,67.8,213.957,68.739L213.957,68.739z"/>
					</g>
					<g>
						<g>
							<defs>
								<path id="SVGID_16_" d="M159.597,531.706c-0.048,11.361,9.093,20.621,20.415,20.679c11.321,0.052,20.55-9.125,20.6-20.49
									c0.055-11.365-9.085-20.621-20.404-20.679C168.878,511.164,159.652,520.339,159.597,531.706"/>
							</defs>
							<clipPath id="SVGID_17_">
								<use xlink:href="#SVGID_16_"  overflow="visible"/>
							</clipPath>
							
								<linearGradient id="SVGID_18_" gradientUnits="userSpaceOnUse" x1="-218.9008" y1="727.2845" x2="-218.0538" y2="727.2845" gradientTransform="matrix(-56.9308 17.71 17.71 56.9308 -25137.2441 -37004.1445)">
								<stop  offset="0" style="stop-color:#555657"/>
								<stop  offset="0.3423" style="stop-color:#EDEDE8"/>
								<stop  offset="0.6597" style="stop-color:#EBEBE5"/>
								<stop  offset="0.9084" style="stop-color:#5A5B5C"/>
								<stop  offset="0.939" style="stop-color:#626364"/>
								<stop  offset="0.9873" style="stop-color:#787A7B"/>
								<stop  offset="1" style="stop-color:#7F8182"/>
							</linearGradient>
							<polygon clip-path="url(#SVGID_17_)" fill="url(#SVGID_18_)" points="212.325,548.793 163.182,564.139 147.894,514.81 
								197.039,499.465 							"/>
						</g>
						<g>
							<defs>
								<path id="SVGID_19_" d="M161.539,531.718c-0.051,10.398,8.227,18.872,18.486,18.913
									c10.247,0.054,18.604-8.346,18.656-18.748c0.047-10.397-8.23-18.868-18.485-18.914
									C169.938,512.921,161.587,521.313,161.539,531.718"/>
							</defs>
							<clipPath id="SVGID_20_">
								<use xlink:href="#SVGID_19_"  overflow="visible"/>
							</clipPath>
							
								<radialGradient id="SVGID_21_" cx="-231.4682" cy="695.8899" r="0.9051" gradientTransform="matrix(20.522 0.0956 0.0962 -20.8117 4863.3545 15036.5791)" gradientUnits="userSpaceOnUse">
								<stop  offset="0" style="stop-color:#FAFDFC"/>
								<stop  offset="0.08" style="stop-color:#FBFEFD"/>
								<stop  offset="1" style="stop-color:#FCFFFF"/>
							</radialGradient>
							<polygon clip-path="url(#SVGID_20_)" fill="url(#SVGID_21_)" points="161.624,512.882 198.771,513.051 198.592,550.72 
								161.449,550.549 							"/>
						</g>
					</g>
				</g>
				<rect x="65.233" y="98.066" fill="#020202" width="229.742" height="405.144"/>
				<linearGradient id="SVGID_22_" gradientUnits="userSpaceOnUse" x1="65.2334" y1="300.6382" x2="294.9751" y2="300.6382">
					<stop  offset="0" style="stop-color:#27BCC8"/>
					<stop  offset="1" style="stop-color:#28C5CF"/>
				</linearGradient>
				<rect x="65.233" y="98.066" fill="url(#SVGID_22_)" width="229.742" height="405.144"/>
			</g>
		</g>
	</g>
</g>
</svg>
