<?xml version="1.0" encoding="utf-8"?>
<!-- Generator: Adobe Illustrator 17.0.0, SVG Export Plug-In . SVG Version: 6.00 Build 0)  -->
<!DOCTYPE svg PUBLIC "-//W3C//DTD SVG 1.1//EN" "http://www.w3.org/Graphics/SVG/1.1/DTD/svg11.dtd">
<svg version="1.1" id="Layer_1" xmlns="http://www.w3.org/2000/svg" xmlns:xlink="http://www.w3.org/1999/xlink" x="0px" y="0px"
	 width="386px" height="200px" viewBox="0 0 386 200" enable-background="new 0 0 386 200" xml:space="preserve">
<path fill="#666666" d="M201.252,73.189l13.574,15.039l-91.982,83.023c-4.819-4.745-9.159-9.973-12.941-15.609l91.35-82.455
	L201.252,73.189z"/>
<path fill="#ECF0F1" d="M202.077,71.336l14.678,16.262l-33.337,30.09l0,0c-1.798,1.622-6.539-0.703-10.593-5.193
	c-4.053-4.49-5.882-9.446-4.086-11.068l33.337-30.09L202.077,71.336z"/>
<path fill="#FFFFFF" d="M212.669,76.529c4.053,4.491,5.882,9.446,4.086,11.068c-1.796,1.622-6.539-0.704-10.591-5.195
	c-4.053-4.49-5.882-9.446-4.086-11.068C203.873,69.712,208.616,72.037,212.669,76.529z"/>
<path fill="#FAD24D" d="M221.464,25.682l3.366,10.427l10.958-0.02l-8.877,6.424l3.407,10.414l-8.853-6.457l-8.853,6.457
	l3.407-10.414l-8.877-6.424l10.956,0.02l3.366-10.427H221.464z"/>
<path fill="#FFFFFF" d="M167.864,35.525l8.142,10.803l12.772-4.453l-7.759,11.08l8.183,10.771l-12.937-3.954l-7.716,11.11
	l-0.237-13.526l-12.952-3.904l12.789-4.404l-0.289-13.524L167.864,35.525z"/>
<path fill="#FAD24D" d="M232.006,119.648l5.163,8.825l9.98-2.221l-6.798,7.639l5.197,8.805l-9.364-4.106l-6.768,7.665l1.011-10.175
	l-9.381-4.07l9.99-2.183l0.972-10.179L232.006,119.648L232.006,119.648z"/>
<path fill="#FFFFFF" d="M245.669,64.934l3.208,9.938l10.443-0.02l-8.461,6.122l3.247,9.927l-8.438-6.155l-8.437,6.155l3.247-9.927
	l-8.461-6.122l10.443,0.02l3.208-9.938H245.669z"/>
<path fill="#FAD24D" d="M150.701,87.102l2.259,6.998l7.354-0.013l-5.957,4.31l2.287,6.989l-5.941-4.334l-5.941,4.334l2.287-6.989
	l-5.957-4.31l7.354,0.013L150.701,87.102z"/>
<path fill="#FFFFFF" d="M188.153,128.57l1.981,6.137l6.448-0.013l-5.225,3.78l2.005,6.128l-5.21-3.801l-5.21,3.801l2.005-6.128
	l-5.225-3.78l6.448,0.013L188.153,128.57z"/>
<g>
	<path fill="#FEFEFE" d="M197.879,51.282c10.979,0,21.512,3.853,29.892,10.949l-0.891,1.054
		c-8.133-6.887-18.345-10.619-29.001-10.619v-1.381V51.282z M244.158,97.562c0,3.882-0.48,7.657-1.381,11.266
		c-0.927,3.714-2.309,7.254-4.079,10.556l-1.214-0.648c1.712-3.197,3.051-6.634,3.954-10.243c0.874-3.495,1.338-7.157,1.338-10.93
		L244.158,97.562L244.158,97.562L244.158,97.562z M216.629,139.884c-2.901,1.287-5.965,2.287-9.151,2.958
		c-3.101,0.654-6.313,0.998-9.599,0.998v-1.381c3.199,0,6.316-0.333,9.318-0.966c3.083-0.65,6.054-1.62,8.875-2.871l0.555,1.263
		L216.629,139.884L216.629,139.884z"/>
	<path fill="#FEFEFE" d="M157.669,75.134c-2.083,3.212-3.729,6.635-4.938,10.182l1.301,0.446c1.17-3.434,2.77-6.755,4.795-9.879
		l-1.157-0.75H157.669L157.669,75.134z"/>
</g>
</svg>
