<?xml version="1.0" encoding="iso-8859-1"?>
<!-- Generator: Adobe Illustrator 19.0.0, SVG Export Plug-In . SVG Version: 6.00 Build 0)  -->
<svg version="1.1" id="Layer_1" xmlns="http://www.w3.org/2000/svg" xmlns:xlink="http://www.w3.org/1999/xlink" x="0px" y="0px"
	 viewBox="0 0 508 508" style="enable-background:new 0 0 508 508;" xml:space="preserve">
<path style="fill:#40596B;" d="M401.55,0h-295c-11.7,0-21.2,9.5-21.2,21.2v465.6c0,11.7,9.5,21.2,21.2,21.2h294.9
	c11.7,0,21.2-9.5,21.2-21.2V21.2C422.75,9.5,413.25,0,401.55,0z"/>
<rect x="130.55" y="56.2" style="fill:#FFFFFF;" width="247" height="346.2"/>
<g>
	<path style="fill:#ACB3BA;" d="M290.25,20.6h-72.3c-4.2,0-7.5,3.4-7.5,7.5l0,0c0,4.2,3.4,7.5,7.5,7.5h72.3c4.2,0,7.5-3.4,7.5-7.5
		l0,0C297.75,23.9,294.35,20.6,290.25,20.6z"/>
	<circle style="fill:#ACB3BA;" cx="254.05" cy="455.2" r="26.5"/>
</g>
<path style="fill:#FF7058;" d="M342.05,191.2h-176c-3.7,0-6.7,3-6.7,6.7v27.2c0,3.7,3,6.7,6.7,6.7h176c3.7,0,6.7-3,6.7-6.7v-27.2
	C348.75,194.2,345.75,191.2,342.05,191.2z"/>
<path style="fill:#40596B;" d="M254.05,124.7c-7.6,0-13.8,6.2-13.8,13.8v70.6c0,7.6,6.2,13.8,13.8,13.8s13.8-6.2,13.8-13.8v-70.6
	C267.85,130.9,261.65,124.7,254.05,124.7z"/>
<circle style="fill:#FFFFFF;" cx="254.05" cy="208.5" r="7.1"/>
<path style="fill:#FFD15C;" d="M173.15,231.8v89.4c0,7,5.6,12.6,12.6,12.6h136.6c7,0,12.6-5.6,12.6-12.6v-89.4L173.15,231.8
	L173.15,231.8z M201.05,303.2c0,2.8-2.3,5.1-5.1,5.1c-1.4,0-2.7-0.6-3.6-1.5c-0.9-0.9-1.5-2.2-1.5-3.6v-40.7c0-2.8,2.3-5.1,5.1-5.1
	c1.4,0,2.7,0.6,3.6,1.5c0.9,0.9,1.5,2.2,1.5,3.6V303.2z M230.05,303.2c0,2.8-2.3,5.1-5.1,5.1s-5.1-2.3-5.1-5.1v-40.7
	c0-2.8,2.3-5.1,5.1-5.1s5.1,2.3,5.1,5.1V303.2z M259.15,303.2c0,2.8-2.3,5.1-5.1,5.1c-2.8,0-5.1-2.3-5.1-5.1v-40.7
	c0-2.8,2.3-5.1,5.1-5.1c2.8,0,5.1,2.3,5.1,5.1V303.2z M288.15,303.2c0,2.8-2.3,5.1-5.1,5.1c-2.8,0-5.1-2.3-5.1-5.1v-40.7
	c0-2.8,2.3-5.1,5.1-5.1c2.8,0,5.1,2.3,5.1,5.1V303.2z M317.15,303.2c0,2.8-2.3,5.1-5.1,5.1c-2.8,0-5.1-2.3-5.1-5.1v-40.7
	c0-2.8,2.3-5.1,5.1-5.1c2.8,0,5.1,2.3,5.1,5.1V303.2z"/>
<rect x="173.15" y="231.8" style="fill:#F8B64C;" width="161.8" height="5.3"/>
<g>
</g>
<g>
</g>
<g>
</g>
<g>
</g>
<g>
</g>
<g>
</g>
<g>
</g>
<g>
</g>
<g>
</g>
<g>
</g>
<g>
</g>
<g>
</g>
<g>
</g>
<g>
</g>
<g>
</g>
</svg>
