<?xml version="1.0" encoding="UTF-8" standalone="no"?>
<svg width="156px" height="229px" viewBox="0 0 156 229" version="1.1" xmlns="http://www.w3.org/2000/svg" xmlns:xlink="http://www.w3.org/1999/xlink">
    <!-- Generator: Sketch 43.2 (39069) - http://www.bohemiancoding.com/sketch -->
    <title>robot</title>
    <desc>Created with Sketch.</desc>
    <defs></defs>
    <g id="Page-1" stroke="none" stroke-width="1" fill="none" fill-rule="evenodd">
        <g id="robot" fill-rule="nonzero">
            <path d="M138.944,95.372 C136.799,101.836 134.553,107.681 130.753,113.395 C127.012,119.019 122.314,124.041 117.375,128.623 C107.964,137.352 96.539,142.779 84.142,145.583 C82.815,142.791 81.175,140.148 79.209,137.693 C85.23,137.079 90.526,136.286 96.135,133.599 C102.319,130.638 108.296,127.384 113.547,122.936 C122.518,115.335 131.054,102.68 133.042,90.987 C133.145,90.382 132.341,90.158 132.124,90.734 C130.061,96.225 128.138,101.521 125.07,106.561 C121.877,111.804 117.79,116.465 113.575,120.902 C109.037,125.678 102.534,128.82 96.704,131.695 C93.661,133.196 90.664,134.571 87.335,135.31 C84.41,135.959 81.43,136.165 78.514,136.843 C77.791,135.991 77.03,135.16 76.223,134.36 C74.743,132.89 72.187,131.211 70.371,130.116 C70.577,129.421 70.616,128.714 70.39,128.083 C70.316,127.877 70.108,127.787 69.926,127.837 C71.154,126.345 71.453,123.972 70.785,122.182 C72.531,120.892 72.353,118.892 71.567,117.133 C81.779,116.062 91.814,112.547 100.295,107.184 C123.529,92.493 134.349,58.198 121.015,33.727 C113.935,20.732 100.882,11.184 87.414,5.65 C79.238,2.29 70.517,0.086 61.635,0.383 C60.832,0.41 60.037,0.473 59.245,0.551 C51.919,0.889 44.77,4.115 38.416,7.511 C31.131,11.403 23.007,16.458 17.97,23.171 C6.797,38.061 3.663,61.353 9.312,78.962 C14.938,96.5 30.929,109.41 48.018,114.9 C50.815,115.799 53.687,116.448 56.6,116.873 C56.016,117.747 55.871,118.839 56.53,119.888 C56.727,120.201 56.973,120.478 57.239,120.74 C56.093,121.524 55.387,122.752 55.884,124.314 C56.266,125.517 57.182,126.469 58.258,127.229 C57.189,128.505 57.078,129.809 57.559,130.956 C53.183,132.566 49.283,135.866 46.128,140.112 C40.976,136.354 33.56,135.914 27.45,136.315 C20.276,136.787 13.201,139.364 7.61,143.897 C2.316,148.19 -1.346,155.609 0.605,162.406 C2.728,169.803 12.974,173.552 20.123,173.476 C19.925,174.764 19.918,176.025 20.126,177.198 C20.096,177.239 20.079,177.288 20.099,177.344 C20.129,177.432 20.169,177.507 20.2,177.592 C20.691,179.774 21.993,181.591 24.354,182.563 C27.725,184.354 32.188,183.753 35.806,181.112 C37.736,179.701 39.011,177.813 39.671,175.745 C40.665,178.289 42.084,180.589 43.968,182.52 C42.702,183.12 41.923,184.298 42.278,185.849 C42.419,186.468 42.725,187.029 43.114,187.547 C41.734,189.038 41.87,191.991 42.745,193.63 C42.78,193.695 42.826,193.749 42.863,193.81 C41.544,194.682 40.672,196.317 41.345,197.858 C41.755,198.798 42.52,199.502 43.411,200.032 C42.86,201.873 43.461,203.472 44.721,204.473 C43.794,204.981 43.228,206.312 43.111,207.245 C42.98,208.295 43.2,209.866 44.025,210.719 C40.831,212.48 38.415,215.605 38.191,219.53 C37.696,228.183 51.503,230.71 57.938,226.413 C57.989,226.423 58.043,226.416 58.095,226.369 C58.169,226.301 58.235,226.23 58.307,226.16 C60.108,224.822 61.242,222.9 61.154,220.368 C61.152,220.331 61.143,220.298 61.131,220.268 C61.412,216.061 58.63,211.799 54.107,209.939 C53.842,209.83 53.568,209.752 53.296,209.667 C53.474,208.906 53.363,207.923 53.278,207.396 C53.068,206.094 52.567,204.711 51.393,204.072 C51.43,204.021 51.472,203.977 51.507,203.926 C52.008,203.173 52.093,201.501 51.499,200.593 C51.536,200.568 51.576,200.551 51.612,200.523 C53.465,199.167 52.791,196.906 51.778,195.246 C52.04,195.079 52.291,194.899 52.517,194.688 C53.306,193.954 53.839,192.485 53.436,191.41 C54.649,190.813 55.251,189.483 55.249,188.143 C60.407,188.935 66.218,188.145 71.393,186.829 C71.089,187.913 71.717,188.721 72.678,189.253 C72.645,189.292 72.618,189.338 72.602,189.396 C72.258,190.73 72.478,191.898 73.063,192.8 C72.405,194.69 72.29,196.808 74.065,198.116 C74.311,198.298 74.581,198.424 74.859,198.527 C74.792,198.573 74.732,198.634 74.7,198.716 C74.202,199.977 74.531,201.012 75.269,201.711 C74.042,202.119 73.374,203.334 73.952,204.721 C74.068,205 74.223,205.256 74.396,205.501 C73.933,205.924 73.655,206.645 73.55,207.204 C73.386,208.076 73.577,209.194 74.152,209.91 C70.693,211.606 68.014,214.854 67.778,218.996 C67.283,227.649 81.09,230.176 87.524,225.881 C87.576,225.891 87.63,225.884 87.682,225.837 C87.757,225.767 87.823,225.696 87.894,225.626 C89.695,224.288 90.828,222.366 90.74,219.834 C90.739,219.798 90.729,219.766 90.717,219.735 C90.98,215.806 88.567,211.83 84.563,209.808 C84.847,209.242 84.931,208.481 84.989,207.952 C85.129,206.677 84.623,205.516 83.786,204.594 C83.877,204.433 83.97,204.269 84.043,204.103 C84.77,202.432 84.108,200.354 82.376,199.692 C82.81,198.667 82.952,197.483 82.765,196.296 C82.733,196.09 82.581,195.98 82.406,195.951 C83.843,194.282 84.203,192.164 81.535,190.726 C81.721,189.45 81.499,187.961 80.693,187.157 C81.133,186.176 81.194,185.005 80.716,183.744 C80.673,183.63 80.606,183.55 80.532,183.486 C83.803,181.596 86.448,178.883 87.871,175.182 C89.778,170.221 88.849,164.446 88.151,159.349 C87.544,154.92 86.389,150.667 84.641,146.695 C96.746,145.702 108.56,138.501 117.476,130.692 C127.209,122.167 138.616,108.997 139.743,95.483 C139.785,95.001 139.082,94.955 138.944,95.372 Z M37.829,165.06 C37.185,164.183 36.428,163.372 35.53,162.681 C31.813,159.819 27.825,161.146 24.814,164.185 C19.068,162.237 9.831,158.872 17.079,152.194 C24.202,145.633 32.884,147.008 41.405,148.395 C39.138,153.683 37.847,159.513 37.829,165.06 Z" id="Shape" fill="#332E2B"></path>
            <g id="Group">
                <path d="M78.06,137.462 L83.789,136.663 L91.584,134.634 L98.546,131.551 L105.87,127.781 L112.179,123.212 L118.017,117.229 L124.254,109.397 L128.314,102.327 L131.033,95.51 L132.882,89.818 L135.131,91.703 L137.995,93.661 L139.663,94.422 L138.684,98.7 L136.436,105.191 L132.882,111.899 L128.422,118.208 L125.412,121.689 L122.077,125.027 L118.016,129.196 L113.049,133.112 L105.98,138.116 L100.36,141.089 L93.472,143.846 L83.538,146.202 C83.537,146.202 82.192,141.157 78.06,137.462 Z" id="Shape" fill="#494340"></path>
                <g id="Shape">
                    <path d="M74.301,101.245 C75.647,101.109 75.99,99.608 75.658,98.49 C75.258,97.141 74.461,96.877 73.277,96.756 C71.372,97.79 71.655,101.511 74.301,101.245 Z" fill="#332E2B"></path>
                    <path d="M67.218,98.49 C66.818,97.141 66.022,96.877 64.837,96.758 C62.933,97.79 63.216,101.51 65.861,101.245 C67.206,101.11 67.55,99.609 67.218,98.49 Z" fill="#332E2B"></path>
                    <path d="M54.896,96.759 C52.992,97.791 53.275,101.511 55.919,101.246 C57.265,101.11 57.609,99.609 57.277,98.491 C56.876,97.141 56.081,96.878 54.896,96.759 Z" fill="#332E2B"></path>
                    <path d="M83.643,112.138 C94.773,108.768 104.141,102.561 111.122,94.151 C107.088,88.629 104.248,82.276 102.856,75.627 C93.804,73.914 84.805,76.218 75.684,76.329 C61.209,76.506 46.749,76.268 32.294,75.427 C31.925,83.692 29.366,92.715 22.315,96.273 C23.417,97.463 24.585,98.62 25.836,99.73 C41.939,114.015 63.127,118.352 83.643,112.138 Z M72.555,86.45 C72.582,86.351 72.637,86.258 72.741,86.187 C74.576,84.939 76.653,87.042 76.944,88.794 C77.25,90.64 76.443,92.756 74.3,92.848 C70.442,93.014 70.065,87.613 72.555,86.45 Z M72.555,96.167 C72.582,96.068 72.637,95.975 72.741,95.904 C74.576,94.658 76.653,96.759 76.944,98.511 C77.25,100.357 76.443,102.474 74.3,102.566 C70.442,102.731 70.065,97.33 72.555,96.167 Z M64.109,86.452 C64.135,86.353 64.195,86.258 64.301,86.187 C66.135,84.941 68.213,87.04 68.504,88.794 C68.81,90.64 68.003,92.756 65.86,92.848 C62.005,93.014 61.624,87.621 64.109,86.452 Z M55.919,102.566 C52.064,102.731 51.684,97.34 54.168,96.17 C54.194,96.071 54.254,95.976 54.36,95.903 C56.194,94.657 58.272,96.758 58.563,98.51 C58.869,100.358 58.061,102.474 55.919,102.566 Z M55.919,92.848 C52.064,93.013 51.684,87.623 54.168,86.454 C54.194,86.354 54.254,86.259 54.36,86.187 C56.194,84.941 58.272,87.04 58.563,88.794 C58.869,90.64 58.061,92.756 55.919,92.848 Z M64.109,96.17 C64.136,96.07 64.195,95.976 64.301,95.903 C66.135,94.657 68.213,96.758 68.504,98.51 C68.81,100.356 68.003,102.473 65.86,102.565 C62.005,102.733 61.624,97.338 64.109,96.17 Z" fill="#CEDDDD"></path>
                    <path d="M65.861,91.527 C67.206,91.393 67.55,89.89 67.218,88.772 C66.818,87.423 66.022,87.159 64.837,87.04 C62.932,88.072 63.215,91.794 65.861,91.527 Z" fill="#332E2B"></path>
                    <path d="M54.896,87.04 C52.992,88.072 53.273,91.794 55.918,91.527 C57.264,91.393 57.608,89.892 57.276,88.772 C56.876,87.423 56.081,87.161 54.896,87.04 Z" fill="#332E2B"></path>
                    <path d="M13.784,153.739 C19.388,146.067 33.303,142.63 41.637,147.87 C42.767,145.326 44.122,142.919 45.669,140.74 C34.51,136.921 22.085,136.17 11.671,142.871 C6.125,146.438 -0.277,153.777 1.785,161.024 C4.263,169.733 13.089,170.275 20.311,172.486 C20.895,169.88 22.184,167.256 23.901,165.184 C18.552,164.083 9.374,159.778 13.784,153.739 Z" fill="#494340"></path>
                    <path d="M33.817,163.395 C31.014,161.877 28.252,162.751 26.06,164.795 C26.176,165.087 26.04,165.473 25.647,165.444 C25.581,165.439 25.507,165.43 25.437,165.424 C21.775,169.42 20.073,176.713 23.295,180.712 C26.792,183.2 31.898,182.718 35.4,179.504 C37.41,177.66 38.502,174.993 38.61,172.301 C38.303,170.984 38.09,169.622 37.965,168.232 C37.229,166.252 35.869,164.505 33.817,163.395 Z" fill="#CEDDDD"></path>
                    <path d="M67.888,127.623 C69.844,126.515 69.573,124.71 69.502,122.878 C67.522,123.69 65.056,123.667 63.063,123.277 C61.381,122.949 59.266,122.363 57.768,121.212 C56.887,122.176 56.357,123.321 57.294,124.608 C58.418,126.155 60.387,127.122 62.187,127.625 C63.936,128.113 66.2,128.58 67.888,127.623 Z" fill="#494340"></path>
                    <path d="M152.863,67.243 C151.004,67.241 149.782,69.277 148.916,70.657 C147.721,72.562 146.741,74.619 146.055,76.762 C145.039,76.286 143.976,75.899 142.901,75.615 C143.149,74.648 142.975,73.366 142.996,72.546 C143.05,70.476 143.057,68.353 142.714,66.303 C142.343,64.099 140.946,59.673 137.775,60.349 C133.514,61.258 136.004,71.478 136.795,75.27 C136.593,75.311 136.399,75.365 136.203,75.418 C136.156,75.396 136.102,75.391 136.043,75.416 C135.988,75.44 135.943,75.47 135.889,75.494 C133.705,76.155 131.967,77.617 131.205,80.11 C131.204,80.113 131.205,80.117 131.204,80.12 C129.644,83.849 130.895,88.557 134.16,91.942 C139.522,97.5 148.701,95.185 152.397,88.866 C154.111,85.934 153.345,83.021 151.318,80.631 C153.422,78.201 155.233,75.461 155.571,72.194 C155.73,70.666 154.961,67.245 152.863,67.243 Z" fill="#FFFFFF"></path>
                    <path d="M61.26,128.811 C60.471,128.493 59.599,128.085 58.781,127.579 C58.061,130.581 59.993,132.741 63.164,132.965 C64.647,133.07 66.368,132.868 67.528,131.83 C68.739,130.747 68.871,129.471 69.593,128.196 C69.363,128.417 69.109,128.612 68.829,128.771 C66.57,130.05 63.591,129.75 61.26,128.811 Z" fill="#494340"></path>
                    <path d="M49.293,57.248 C48.795,57.008 48.303,56.896 47.817,56.867 C47.761,56.942 47.679,56.998 47.577,56.971 C47.428,56.93 47.285,56.905 47.143,56.883 C46.123,56.99 45.136,57.451 44.194,58.015 C41.916,60.656 42.201,66.889 45.788,67.636 C49.525,68.414 52.875,65.051 52.069,61.342 C51.716,59.726 50.863,58.003 49.293,57.248 Z" fill="#E2D134"></path>
                    <path d="M74.301,91.527 C75.647,91.393 75.99,89.892 75.658,88.772 C75.258,87.423 74.461,87.159 73.277,87.04 C71.372,88.072 71.655,91.794 74.301,91.527 Z" fill="#332E2B"></path>
                    <path d="M24.427,48.041 C38.014,47.218 51.618,47.669 65.178,48.757 C78.049,49.79 91.234,50.599 103.993,52.683 C106.298,44.814 110.687,35.48 118.773,33.972 C115.302,27.964 110.621,22.675 105.165,18.324 C96.233,11.198 85.559,5.893 74.383,3.407 C62.027,0.657 50.92,3.047 39.764,8.377 C37.364,9.762 35.071,11.226 32.927,12.665 C23.285,19.137 16.113,26.578 12.489,37.88 C12.455,37.985 12.424,38.092 12.391,38.2 C17.273,40.34 21.302,43.816 24.427,48.041 Z" fill="#CEDDDD"></path>
                    <path d="M57.616,117.011 C57.158,117.9 57.087,118.792 58.162,119.69 C58.321,119.823 58.488,119.942 58.658,120.057 C58.77,120.021 58.883,119.987 58.997,119.958 C59.043,119.946 59.088,120.011 59.046,120.043 C58.987,120.092 58.926,120.142 58.866,120.193 C60.245,121.056 61.918,121.43 63.497,121.706 C65.366,122.032 67.818,122.264 69.551,121.293 C71.226,120.353 71.011,118.725 70.352,117.243 C66.094,117.608 61.816,117.545 57.616,117.011 Z" fill="#494340"></path>
                    <path d="M120.35,78.374 C120.89,76.982 121.399,75.568 121.843,74.113 C124.531,65.302 125.883,56.096 123.965,47.108 C120.434,52.431 117.72,58.174 117.871,64.747 C117.98,69.461 119.689,73.853 120.35,78.374 Z" fill="#CEDDDD"></path>
                    <path d="M104.378,59.174 C103.353,65.376 103.572,72.198 105.382,78.238 C106.966,83.522 109.609,88.176 112.033,93.057 C115.006,89.282 117.505,85.081 119.483,80.509 C116.448,75.708 115.623,67.626 116.29,62.164 C117.039,56.013 119.389,50.712 123.803,46.387 C123.525,45.199 123.197,44.014 122.799,42.835 C121.807,39.903 120.533,37.094 119.026,34.422 C109.99,38.034 105.818,50.456 104.378,59.174 Z M111.883,53.476 C112.791,53.476 113.549,54.234 113.549,55.142 C113.549,56.05 112.791,56.808 111.883,56.808 C110.975,56.808 110.217,56.05 110.217,55.142 C110.218,54.234 110.976,53.476 111.883,53.476 Z M108.046,66.871 C108.046,65.797 108.943,64.899 110.018,64.899 C111.093,64.899 111.99,65.796 111.99,66.871 C111.99,67.947 111.093,68.843 110.018,68.843 C108.942,68.843 108.046,67.947 108.046,66.871 Z M110.55,78.002 C108.227,78.002 108.227,74.399 110.55,74.399 C112.873,74.399 112.873,78.002 110.55,78.002 Z M117.094,43.313 C117.872,43.313 118.522,43.962 118.522,44.741 C118.522,45.518 117.873,46.167 117.094,46.167 C116.316,46.167 115.667,45.518 115.667,44.741 C115.667,43.962 116.317,43.313 117.094,43.313 Z M115.619,83.665 C115.619,84.685 114.768,85.535 113.749,85.535 C112.73,85.535 111.879,84.685 111.879,83.665 C111.879,82.647 112.73,81.795 113.749,81.795 C114.768,81.795 115.619,82.647 115.619,83.665 Z" fill="#FFFFFF"></path>
                    <path d="M80.651,57.488 C79.977,57.513 79.434,57.719 78.934,58.015 C77.06,59.329 76.07,61.633 77.036,63.935 C78.221,66.76 81.472,67.344 83.89,65.587 C86.218,63.894 85.975,60.811 83.935,58.952 C83.055,58.149 81.886,57.44 80.651,57.488 Z" fill="#E2D134"></path>
                    <path d="M29.694,65.997 C27.612,55.208 21.853,44.908 11.967,39.583 C10.653,44.022 9.739,48.553 9.268,53.086 C13.75,57.42 16.615,63.132 17.713,69.295 C18.521,73.84 17.711,80.572 13.921,83.786 C15.862,87.942 18.396,91.866 21.579,95.459 C25.02,91.383 28.068,87.813 29.361,82.392 C30.634,77.057 30.735,71.392 29.694,65.997 Z M14.66,49.829 C14.646,49.86 14.632,49.89 14.618,49.921 C14.049,51.162 12.071,50.521 12.109,49.241 C12.111,49.207 12.112,49.173 12.112,49.137 C12.138,48.253 12.966,47.578 13.843,47.82 C14.758,48.072 15.022,49.037 14.66,49.829 Z M18.317,53.777 C20.421,53.777 20.421,57.04 18.317,57.04 C16.213,57.041 16.213,53.777 18.317,53.777 Z M19.916,87.616 C17.571,87.616 17.571,83.979 19.916,83.979 C22.262,83.979 22.262,87.616 19.916,87.616 Z M22.256,78.938 C22.078,78.94 21.902,78.911 21.729,78.868 C21.257,78.751 20.875,78.348 20.748,77.886 C20.628,77.451 20.74,77.07 20.968,76.723 C21.022,76.631 21.083,76.548 21.15,76.47 C21.153,76.465 21.158,76.46 21.161,76.456 C21.16,76.458 21.159,76.458 21.158,76.459 C21.428,76.146 21.794,75.935 22.256,75.935 C22.785,75.935 23.284,76.221 23.551,76.678 C24.132,77.67 23.389,78.925 22.256,78.938 Z M22.359,65.431 C21.404,65.431 20.606,64.634 20.606,63.677 C20.606,62.722 21.404,61.925 22.359,61.925 C23.315,61.925 24.112,62.722 24.112,63.677 C24.112,64.634 23.315,65.431 22.359,65.431 Z" fill="#FFFFFF"></path>
                    <path d="M15.53,67.372 C14.294,62.56 11.979,58.328 9.143,54.35 C8.315,64.005 9.535,73.62 13.255,82.307 C14.254,80.388 15.44,78.597 15.823,76.362 C16.332,73.396 16.283,70.299 15.53,67.372 Z" fill="#CEDDDD"></path>
                    <path d="M103.559,54.226 C90.22,53.578 76.882,51.32 63.555,50.332 C50.844,49.389 38.093,48.806 25.352,49.341 C28.775,54.425 30.973,60.428 31.858,66.41 C32.203,68.744 32.392,71.468 32.33,74.32 C47.389,73.623 62.488,75.362 77.547,74.368 C83.196,73.994 88.833,73.122 94.501,73.073 C96.97,73.051 100.061,72.871 102.515,73.857 C101.562,68.233 101.641,62.436 102.927,56.788 C103.113,55.971 103.323,55.113 103.559,54.226 Z M46.213,69.159 C39.29,68.253 40.604,56.06 46.083,56.159 C49.049,55.275 52.156,57.201 53.066,60.671 C54.205,65.024 51.124,69.801 46.213,69.159 Z M84.613,66.823 C81.566,68.947 77.113,68.461 75.764,64.615 C74.971,62.354 75.496,60.189 76.945,58.726 C76.948,58.721 76.947,58.716 76.949,58.711 C80,52.018 91.844,61.782 84.613,66.823 Z" fill="#FFFFFF"></path>
                    <path d="M137.542,75.163 C138.764,75.015 140.068,75.068 141.388,75.29 C141.042,73.454 141.646,70.528 141.581,69.185 C141.503,67.547 141.42,65.805 140.815,64.26 C140.516,63.493 138.344,60.286 137.429,62.101 C135.496,65.943 137.748,70.979 137.542,75.163 Z" fill="#CEDDDD"></path>
                    <path d="M77.762,194.628 C76.098,194.893 74.573,194.416 73.585,193.44 C73.503,194.842 73.6,196.623 74.961,197.232 C76.154,197.766 77.693,197.438 78.857,196.981 C81.106,196.097 83.962,193.614 81.29,191.714 C81.247,191.831 81.207,191.954 81.155,192.059 C80.517,193.359 79.212,194.397 77.762,194.628 Z" fill="#494340"></path>
                    <path d="M78.74,201.359 C80.986,200.683 82.015,198.833 81.807,196.568 C81.095,197.219 80.242,197.765 79.383,198.116 C78.25,198.578 76.786,198.935 75.492,198.699 C75.5,198.738 75.509,198.777 75.505,198.823 C75.339,200.875 76.726,201.964 78.74,201.359 Z" fill="#494340"></path>
                    <path d="M79.032,207.714 C77.676,207.748 76.202,207.231 75.137,206.302 C75.046,206.402 74.959,206.504 74.892,206.628 C74.696,206.99 74.595,207.374 74.571,207.785 C74.534,208.417 74.682,209.012 74.749,209.626 C77.477,208.46 80.608,208.254 83.405,209.306 C83.538,208.915 83.736,208.524 83.794,208.126 C83.939,207.144 83.709,206.246 83.254,205.4 C82.231,206.699 80.659,207.675 79.032,207.714 Z" fill="#494340"></path>
                    <path d="M78.491,202.651 C77.564,202.77 76.627,202.585 75.888,202.162 C75.388,202.468 74.799,202.881 74.813,203.437 C74.828,204.051 75.082,204.613 75.512,205.055 C76.527,206.099 78.062,206.811 79.543,206.467 C80.979,206.136 82.41,205.248 83.065,203.873 C83.832,202.263 83.138,201.373 82.021,200.394 C81.294,201.58 80.101,202.443 78.491,202.651 Z" fill="#494340"></path>
                    <path d="M64.127,153.026 C64.141,153.113 64.091,153.216 63.987,153.216 C56.046,153.24 58.125,167.071 64.698,166.238 C69.325,165.65 72.09,160.845 69.586,156.778 C68.248,154.605 66.222,153.172 64.127,153.026 Z" fill="#494340"></path>
                    <path d="M57.479,149.315 C53.454,152.143 51.163,157.252 51.699,162.484 C52.497,170.268 60.816,175.615 68.313,173.103 C76.232,170.45 80.08,160.449 75.197,153.357 C70.778,146.936 63.91,146.084 57.479,149.315 Z M65.259,167.637 C58.104,169.087 55.232,157.628 59.602,153.943 C62.643,150.134 68.234,152.418 70.508,156.239 C73.346,161.01 70.738,166.527 65.259,167.637 Z" fill="#E2D134"></path>
                    <path d="M151.723,69.322 C149.462,71.47 148.333,74.482 146.586,77.019 C148.045,77.758 149.378,78.681 150.471,79.735 C151.83,77.724 153.471,75.654 153.916,73.282 C154.14,72.089 153.873,67.279 151.723,69.322 Z" fill="#CEDDDD"></path>
                    <path d="M143.403,77.318 C139.768,76.135 135.786,76.06 133.125,78.654 C130.644,82.563 131.795,88.092 135.714,91.319 C138.508,93.62 142.344,94.489 145.676,92.709 C147.962,91.489 150.911,89.638 151.495,86.871 C152.488,82.179 147.26,78.573 143.403,77.318 Z" fill="#CEDDDD"></path>
                    <path d="M69.575,221.096 C72.268,228.43 85.972,228.257 89.442,221.616 C90.477,216.631 86.735,211.257 81.257,210.179 C76,209.146 67.283,214.859 69.575,221.096 Z" fill="#CEDDDD"></path>
                    <path d="M82.773,146.022 C79.917,140.248 75.062,134.689 69.925,131.179 C69.409,132.127 68.64,132.96 67.879,133.422 C66.211,134.435 64.187,134.765 62.27,134.394 C60.418,134.037 58.604,132.869 57.764,131.37 C47.78,136.941 41.733,149.002 40.578,160.069 C39.528,170.129 42.13,183.202 53.718,185.677 C61.182,187.269 71.062,185.937 77.968,182.696 C82.662,180.492 86.148,176.973 86.979,171.705 C88.264,163.564 86.814,154.582 83.15,146.794 C82.75,146.786 82.592,146.305 82.773,146.022 Z M68.744,174.667 C60.842,176.875 51.097,172.175 50.244,163.354 C49.738,158.124 51.749,152.886 55.501,149.761 C55.516,149.717 55.54,149.673 55.583,149.635 C62.184,143.919 72.577,145.597 76.679,153.592 C80.616,161.262 77.762,172.146 68.744,174.667 Z" fill="#CEDDDD"></path>
                    <path d="M77.631,193.378 C78.695,193.099 79.704,192.535 80.19,191.495 C80.777,190.239 80.311,189.223 80.145,188.06 C79.252,189.182 77.783,189.911 76.109,190.011 C75.297,190.06 74.251,189.909 73.341,189.559 C73.375,192.037 74.93,194.086 77.631,193.378 Z" fill="#494340"></path>
                    <path d="M46.542,190.322 C45.533,189.749 44.379,188.983 43.51,188.029 C43.479,189.622 42.765,191.229 43.724,192.779 C44.516,194.055 45.967,194.781 47.448,194.878 C48.832,194.968 50.278,194.74 51.442,193.94 C52.442,193.253 52.418,192.575 52.407,191.71 C50.402,192.032 48.265,191.301 46.542,190.322 Z" fill="#494340"></path>
                    <path d="M47.448,196.223 C45.884,196.075 44.206,195.519 43.187,194.277 C42.438,195.312 41.675,196.475 42.494,197.7 C43.331,198.953 44.956,199.607 46.375,199.91 C47.708,200.196 49.526,200.384 50.747,199.618 C52.159,198.733 51.617,196.899 51.05,195.639 C49.93,196.145 48.639,196.333 47.448,196.223 Z" fill="#494340"></path>
                    <path d="M44.36,182.915 C43.334,183.772 42.637,184.817 43.54,186.192 C44.468,187.604 45.901,188.662 47.406,189.394 C48.796,190.07 50.667,190.796 52.241,190.39 C53.621,190.035 53.913,189.064 54.028,187.92 C53.239,187.755 52.462,187.56 51.715,187.308 C48.755,186.312 46.32,184.805 44.36,182.915 Z" fill="#494340"></path>
                    <path d="M76.152,188.529 C78.557,188.102 80.135,186.615 79.603,184.051 C79.599,184.029 79.604,184.014 79.601,183.993 C78.502,184.557 77.345,185.04 76.145,185.439 C74.87,185.862 73.511,186.27 72.102,186.646 C72.528,188.294 74.546,188.814 76.152,188.529 Z" fill="#494340"></path>
                    <path d="M39.985,221.63 C42.679,228.964 56.383,228.789 59.853,222.15 C60.889,217.165 57.146,211.789 51.668,210.713 C46.41,209.678 37.694,215.391 39.985,221.63 Z" fill="#CEDDDD"></path>
                    <path d="M48.055,205.572 C47.061,205.565 46.156,205.326 45.398,204.914 C44.863,205.728 44.303,206.439 44.271,207.521 C44.236,208.721 44.715,209.309 45.317,210.099 C47.394,209.242 49.692,208.94 51.897,209.321 C51.918,208.818 52.001,208.289 51.957,207.881 C51.83,206.708 51.375,205.689 50.796,204.693 C50.038,205.3 49.05,205.581 48.055,205.572 Z" fill="#494340"></path>
                    <path d="M48.055,204.257 C48.89,204.216 50.039,203.951 50.486,203.151 C50.893,202.42 50.548,201.781 50.393,201.134 C49.012,201.586 47.395,201.445 46.048,201.093 C45.433,200.933 44.784,200.711 44.162,200.423 C44.079,202.654 45.623,204.377 48.055,204.257 Z" fill="#494340"></path>
                    <path d="M54.36,95.904 C54.254,95.977 54.194,96.072 54.168,96.171 C51.684,97.34 52.064,102.732 55.919,102.567 C58.061,102.475 58.869,100.359 58.564,98.512 C58.273,96.759 56.194,94.658 54.36,95.904 Z M55.919,101.245 C53.274,101.51 52.992,97.79 54.896,96.758 C56.081,96.877 56.877,97.14 57.277,98.49 C57.609,99.609 57.265,101.11 55.919,101.245 Z" fill="#332E2B"></path>
                    <path d="M68.504,98.511 C68.212,96.759 66.135,94.658 64.301,95.904 C64.195,95.977 64.136,96.071 64.109,96.171 C61.624,97.339 62.005,102.733 65.86,102.567 C68.003,102.474 68.81,100.357 68.504,98.511 Z M64.837,96.759 C66.022,96.878 66.818,97.141 67.218,98.491 C67.55,99.609 67.206,101.11 65.861,101.246 C63.215,101.511 62.932,97.79 64.837,96.759 Z" fill="#332E2B"></path>
                    <path d="M74.301,102.566 C76.443,102.474 77.251,100.356 76.945,98.511 C76.653,96.759 74.577,94.658 72.742,95.904 C72.637,95.975 72.583,96.069 72.556,96.167 C70.065,97.33 70.442,102.731 74.301,102.566 Z M73.277,96.757 C74.462,96.878 75.258,97.141 75.658,98.491 C75.99,99.609 75.647,101.11 74.301,101.246 C71.655,101.511 71.372,97.79 73.277,96.757 Z" fill="#332E2B"></path>
                    <path d="M54.36,86.187 C54.254,86.258 54.194,86.354 54.168,86.454 C51.684,87.623 52.064,93.013 55.919,92.848 C58.061,92.756 58.869,90.64 58.564,88.794 C58.273,87.04 56.194,84.941 54.36,86.187 Z M55.919,91.527 C53.274,91.794 52.992,88.072 54.897,87.04 C56.082,87.161 56.877,87.422 57.277,88.772 C57.609,89.892 57.265,91.393 55.919,91.527 Z" fill="#332E2B"></path>
                    <path d="M65.861,92.848 C68.003,92.756 68.811,90.64 68.505,88.794 C68.213,87.04 66.136,84.941 64.302,86.187 C64.196,86.258 64.136,86.354 64.11,86.452 C61.624,87.621 62.005,93.014 65.861,92.848 Z M64.837,87.04 C66.022,87.159 66.818,87.422 67.218,88.772 C67.55,89.89 67.206,91.393 65.861,91.527 C63.215,91.794 62.932,88.072 64.837,87.04 Z" fill="#332E2B"></path>
                    <path d="M74.301,92.848 C76.443,92.756 77.251,90.64 76.945,88.794 C76.653,87.042 74.577,84.939 72.742,86.187 C72.637,86.258 72.583,86.352 72.556,86.45 C70.065,87.613 70.442,93.014 74.301,92.848 Z M73.277,87.04 C74.462,87.159 75.258,87.422 75.658,88.772 C75.99,89.892 75.647,91.393 74.301,91.527 C71.655,91.794 71.372,88.072 73.277,87.04 Z" fill="#332E2B"></path>
                    <path d="M46.083,56.158 C40.604,56.059 39.291,68.252 46.213,69.158 C51.124,69.8 54.205,65.023 53.066,60.67 C52.157,57.2 49.049,55.275 46.083,56.158 Z M45.787,67.636 C42.2,66.888 41.914,60.656 44.193,58.015 C45.135,57.451 46.122,56.99 47.142,56.883 C47.284,56.905 47.428,56.931 47.576,56.971 C47.679,56.998 47.76,56.942 47.816,56.867 C48.302,56.896 48.794,57.008 49.292,57.248 C50.862,58.003 51.716,59.726 52.067,61.342 C52.875,65.051 49.524,68.414 45.787,67.636 Z" fill="#332E2B"></path>
                    <path d="M76.95,58.711 C76.947,58.716 76.948,58.721 76.946,58.726 C75.497,60.189 74.972,62.355 75.765,64.615 C77.114,68.461 81.567,68.947 84.614,66.823 C91.844,61.782 80,52.018 76.95,58.711 Z M83.889,65.586 C81.471,67.343 78.22,66.759 77.035,63.934 C76.07,61.633 77.06,59.328 78.933,58.014 C79.433,57.718 79.976,57.513 80.65,57.487 C81.886,57.439 83.055,58.148 83.934,58.95 C85.975,60.81 86.218,63.893 83.889,65.586 Z" fill="#332E2B"></path>
                    <path d="M19.916,83.979 C17.571,83.979 17.571,87.616 19.916,87.616 C22.262,87.616 22.262,83.979 19.916,83.979 Z" fill="#332E2B"></path>
                    <path d="M22.256,75.937 C21.794,75.937 21.428,76.148 21.158,76.461 C21.159,76.459 21.16,76.459 21.161,76.458 C21.158,76.461 21.153,76.467 21.15,76.472 C21.083,76.55 21.022,76.634 20.968,76.725 C20.74,77.072 20.628,77.452 20.748,77.888 C20.875,78.35 21.258,78.753 21.729,78.87 C21.902,78.912 22.077,78.941 22.256,78.94 C23.389,78.926 24.132,77.672 23.551,76.681 C23.285,76.222 22.785,75.937 22.256,75.937 Z" fill="#332E2B"></path>
                    <path d="M22.359,61.925 C21.404,61.925 20.606,62.722 20.606,63.677 C20.606,64.634 21.404,65.431 22.359,65.431 C23.315,65.431 24.112,64.634 24.112,63.677 C24.112,62.722 23.315,61.925 22.359,61.925 Z" fill="#332E2B"></path>
                    <path d="M18.317,53.777 C16.213,53.777 16.213,57.04 18.317,57.04 C20.421,57.041 20.421,53.777 18.317,53.777 Z" fill="#332E2B"></path>
                    <path d="M13.843,47.82 C12.966,47.579 12.138,48.253 12.112,49.137 C12.111,49.173 12.11,49.207 12.109,49.241 C12.072,50.521 14.05,51.162 14.618,49.921 C14.632,49.89 14.646,49.86 14.66,49.829 C15.022,49.037 14.758,48.072 13.843,47.82 Z" fill="#332E2B"></path>
                    <path d="M117.094,46.166 C117.872,46.166 118.522,45.517 118.522,44.74 C118.522,43.962 117.873,43.312 117.094,43.312 C116.316,43.312 115.667,43.961 115.667,44.74 C115.667,45.517 116.317,46.166 117.094,46.166 Z" fill="#332E2B"></path>
                    <path d="M111.883,56.808 C112.791,56.808 113.549,56.05 113.549,55.142 C113.549,54.234 112.791,53.476 111.883,53.476 C110.975,53.476 110.217,54.234 110.217,55.142 C110.218,56.05 110.976,56.808 111.883,56.808 Z" fill="#332E2B"></path>
                    <path d="M111.989,66.871 C111.989,65.797 111.092,64.899 110.017,64.899 C108.942,64.899 108.045,65.796 108.045,66.871 C108.045,67.947 108.942,68.843 110.017,68.843 C111.092,68.843 111.989,67.947 111.989,66.871 Z" fill="#332E2B"></path>
                    <path d="M110.55,74.399 C108.227,74.399 108.227,78.002 110.55,78.002 C112.873,78.002 112.873,74.399 110.55,74.399 Z" fill="#332E2B"></path>
                    <path d="M111.88,83.665 C111.88,84.685 112.731,85.535 113.75,85.535 C114.769,85.535 115.62,84.685 115.62,83.665 C115.62,82.647 114.769,81.795 113.75,81.795 C112.73,81.795 111.88,82.647 111.88,83.665 Z" fill="#332E2B"></path>
                    <path d="M55.583,149.635 C55.54,149.672 55.516,149.717 55.501,149.761 C51.749,152.887 49.739,158.125 50.244,163.354 C51.097,172.175 60.842,176.874 68.744,174.667 C77.762,172.146 80.616,161.262 76.679,153.592 C72.577,145.597 62.184,143.919 55.583,149.635 Z M68.313,173.103 C60.817,175.615 52.497,170.268 51.699,162.484 C51.163,157.253 53.454,152.144 57.479,149.315 C63.91,146.084 70.778,146.936 75.197,153.357 C80.08,160.449 76.232,170.45 68.313,173.103 Z" fill="#332E2B"></path>
                    <path d="M59.602,153.943 C55.232,157.628 58.105,169.087 65.259,167.637 C70.739,166.527 73.347,161.01 70.508,156.24 C68.234,152.419 62.642,150.135 59.602,153.943 Z M64.698,166.238 C58.125,167.071 56.046,153.239 63.987,153.216 C64.092,153.216 64.141,153.112 64.127,153.026 C66.222,153.172 68.248,154.605 69.586,156.779 C72.09,160.846 69.325,165.65 64.698,166.238 Z" fill="#332E2B"></path>
                    <path d="M138.944,95.372 C136.799,101.836 134.553,107.681 130.753,113.395 C127.012,119.019 122.314,124.041 117.375,128.623 C107.964,137.352 96.539,142.779 84.142,145.583 C82.815,142.791 81.175,140.148 79.209,137.693 C85.23,137.079 90.526,136.286 96.135,133.599 C102.319,130.638 108.296,127.384 113.547,122.936 C122.518,115.335 131.054,102.68 133.042,90.987 C133.145,90.382 132.341,90.158 132.124,90.734 C130.061,96.225 128.138,101.521 125.07,106.561 C121.877,111.804 117.79,116.465 113.575,120.902 C109.037,125.678 102.534,128.82 96.704,131.695 C93.661,133.196 90.664,134.571 87.335,135.31 C84.41,135.959 81.43,136.165 78.514,136.843 C77.791,135.991 77.03,135.16 76.223,134.36 C74.743,132.89 72.187,131.211 70.371,130.116 C70.577,129.421 70.616,128.714 70.39,128.083 C70.316,127.877 70.108,127.787 69.926,127.837 C71.154,126.345 71.453,123.972 70.785,122.182 C72.531,120.892 72.353,118.892 71.567,117.133 C81.779,116.062 91.814,112.547 100.295,107.184 C123.529,92.493 134.349,58.198 121.015,33.727 C113.935,20.732 100.882,11.184 87.414,5.65 C79.238,2.29 70.517,0.086 61.635,0.383 C60.832,0.41 60.037,0.473 59.245,0.551 C51.919,0.889 44.77,4.115 38.416,7.511 C31.131,11.403 23.007,16.458 17.97,23.171 C6.797,38.061 3.663,61.353 9.312,78.962 C14.938,96.5 30.929,109.41 48.018,114.9 C50.815,115.799 53.687,116.448 56.6,116.873 C56.016,117.747 55.871,118.839 56.53,119.888 C56.727,120.201 56.973,120.478 57.239,120.74 C56.093,121.524 55.387,122.752 55.884,124.314 C56.266,125.517 57.182,126.469 58.258,127.229 C57.189,128.505 57.078,129.809 57.559,130.956 C53.183,132.566 49.283,135.866 46.128,140.112 C40.976,136.354 33.56,135.914 27.45,136.315 C20.276,136.787 13.201,139.364 7.61,143.897 C2.316,148.19 -1.346,155.609 0.605,162.406 C2.728,169.803 12.974,173.552 20.123,173.476 C19.925,174.764 19.918,176.025 20.126,177.198 C20.096,177.239 20.079,177.288 20.099,177.344 C20.129,177.432 20.169,177.507 20.2,177.592 C20.691,179.774 21.993,181.591 24.354,182.563 C27.725,184.354 32.188,183.753 35.806,181.112 C37.736,179.701 39.011,177.813 39.671,175.745 C40.665,178.289 42.084,180.589 43.968,182.52 C42.702,183.12 41.923,184.298 42.278,185.849 C42.419,186.468 42.725,187.029 43.114,187.547 C41.734,189.038 41.87,191.991 42.745,193.63 C42.78,193.695 42.826,193.749 42.863,193.81 C41.544,194.682 40.672,196.317 41.345,197.858 C41.755,198.798 42.52,199.502 43.411,200.032 C42.86,201.873 43.461,203.472 44.721,204.473 C43.794,204.981 43.228,206.312 43.111,207.245 C42.98,208.295 43.2,209.866 44.025,210.719 C40.831,212.48 38.415,215.605 38.191,219.53 C37.696,228.183 51.503,230.71 57.938,226.413 C57.989,226.423 58.043,226.416 58.095,226.369 C58.169,226.301 58.235,226.23 58.307,226.16 C60.108,224.822 61.242,222.9 61.154,220.368 C61.152,220.331 61.143,220.298 61.131,220.268 C61.412,216.061 58.63,211.799 54.107,209.939 C53.842,209.83 53.568,209.752 53.296,209.667 C53.474,208.906 53.363,207.923 53.278,207.396 C53.068,206.094 52.567,204.711 51.393,204.072 C51.43,204.021 51.472,203.977 51.507,203.926 C52.008,203.173 52.093,201.501 51.499,200.593 C51.536,200.568 51.576,200.551 51.612,200.523 C53.465,199.167 52.791,196.906 51.778,195.246 C52.04,195.079 52.291,194.899 52.517,194.688 C53.306,193.954 53.839,192.485 53.436,191.41 C54.649,190.813 55.251,189.483 55.249,188.143 C60.407,188.935 66.218,188.145 71.393,186.829 C71.089,187.913 71.717,188.721 72.678,189.253 C72.645,189.292 72.618,189.338 72.602,189.396 C72.258,190.73 72.478,191.898 73.063,192.8 C72.405,194.69 72.29,196.808 74.065,198.116 C74.311,198.298 74.581,198.424 74.859,198.527 C74.792,198.573 74.732,198.634 74.7,198.716 C74.202,199.977 74.531,201.012 75.269,201.711 C74.042,202.119 73.374,203.334 73.952,204.721 C74.068,205 74.223,205.256 74.396,205.501 C73.933,205.924 73.655,206.645 73.55,207.204 C73.386,208.076 73.577,209.194 74.152,209.91 C70.693,211.606 68.014,214.854 67.778,218.996 C67.283,227.649 81.09,230.176 87.524,225.881 C87.576,225.891 87.63,225.884 87.682,225.837 C87.757,225.767 87.823,225.696 87.894,225.626 C89.695,224.288 90.828,222.366 90.74,219.834 C90.739,219.798 90.729,219.766 90.717,219.735 C90.98,215.806 88.567,211.83 84.563,209.808 C84.847,209.242 84.931,208.481 84.989,207.952 C85.129,206.677 84.623,205.516 83.786,204.594 C83.877,204.433 83.97,204.269 84.043,204.103 C84.77,202.432 84.108,200.354 82.376,199.692 C82.81,198.667 82.952,197.483 82.765,196.296 C82.733,196.09 82.581,195.98 82.406,195.951 C83.843,194.282 84.203,192.164 81.535,190.726 C81.721,189.45 81.499,187.961 80.693,187.157 C81.133,186.176 81.194,185.005 80.716,183.744 C80.673,183.63 80.606,183.55 80.532,183.486 C83.803,181.596 86.448,178.883 87.871,175.182 C89.778,170.221 88.849,164.446 88.151,159.349 C87.544,154.92 86.389,150.667 84.641,146.695 C96.746,145.702 108.56,138.501 117.476,130.692 C127.209,122.167 138.616,108.997 139.743,95.483 C139.785,95.001 139.082,94.955 138.944,95.372 Z M69.55,121.292 C67.817,122.263 65.365,122.031 63.496,121.705 C61.918,121.43 60.245,121.056 58.865,120.192 C58.925,120.141 58.986,120.092 59.045,120.042 C59.087,120.01 59.042,119.945 58.996,119.957 C58.882,119.986 58.769,120.02 58.657,120.056 C58.487,119.94 58.32,119.821 58.161,119.689 C57.087,118.792 57.157,117.899 57.615,117.01 C61.816,117.544 66.094,117.607 70.351,117.241 C71.01,118.724 71.225,120.352 69.55,121.292 Z M121.843,74.113 C121.399,75.568 120.89,76.982 120.35,78.374 C119.689,73.853 117.98,69.461 117.871,64.747 C117.72,58.175 120.434,52.432 123.965,47.108 C125.883,56.096 124.531,65.302 121.843,74.113 Z M122.8,42.834 C123.199,44.014 123.527,45.198 123.804,46.386 C119.39,50.711 117.04,56.013 116.291,62.163 C115.624,67.626 116.448,75.707 119.484,80.508 C117.506,85.08 115.006,89.281 112.034,93.056 C109.61,88.175 106.967,83.521 105.383,78.237 C103.572,72.197 103.354,65.374 104.379,59.173 C105.819,50.456 109.991,38.033 119.028,34.42 C120.534,37.092 121.808,39.902 122.8,42.834 Z M12.489,37.879 C16.113,26.577 23.285,19.136 32.927,12.664 C35.071,11.224 37.365,9.761 39.764,8.376 C50.92,3.046 62.027,0.656 74.383,3.406 C85.559,5.893 96.232,11.197 105.165,18.323 C110.621,22.674 115.302,27.963 118.773,33.971 C110.687,35.479 106.299,44.813 103.993,52.682 C91.234,50.598 78.049,49.789 65.178,48.756 C51.618,47.668 38.013,47.218 24.427,48.04 C21.302,43.815 17.273,40.339 12.391,38.198 C12.424,38.092 12.455,37.985 12.489,37.879 Z M102.515,73.856 C100.062,72.87 96.97,73.05 94.501,73.072 C88.834,73.121 83.196,73.993 77.547,74.367 C62.488,75.361 47.389,73.623 32.33,74.319 C32.392,71.467 32.203,68.743 31.858,66.409 C30.972,60.426 28.775,54.423 25.352,49.34 C38.093,48.805 50.844,49.388 63.555,50.331 C76.882,51.319 90.221,53.577 103.559,54.225 C103.323,55.112 103.113,55.971 102.927,56.786 C101.641,62.435 101.562,68.232 102.515,73.856 Z M9.143,54.35 C11.979,58.329 14.294,62.561 15.53,67.372 C16.283,70.299 16.331,73.395 15.823,76.361 C15.44,78.596 14.253,80.387 13.255,82.306 C9.535,73.62 8.315,64.005 9.143,54.35 Z M21.579,95.46 C18.397,91.867 15.862,87.943 13.921,83.787 C17.711,80.573 18.521,73.841 17.713,69.296 C16.615,63.133 13.75,57.421 9.268,53.087 C9.739,48.554 10.653,44.023 11.967,39.584 C21.853,44.909 27.612,55.208 29.694,65.998 C30.735,71.393 30.634,77.057 29.361,82.394 C28.068,87.814 25.02,91.384 21.579,95.46 Z M25.836,99.729 C24.585,98.619 23.417,97.462 22.315,96.272 C29.367,92.715 31.925,83.692 32.294,75.426 C46.749,76.267 61.209,76.505 75.684,76.328 C84.806,76.218 93.804,73.913 102.856,75.626 C104.248,82.275 107.088,88.628 111.122,94.15 C104.141,102.56 94.773,108.767 83.643,112.137 C63.127,118.352 41.939,114.015 25.836,99.729 Z M57.294,124.608 C56.357,123.321 56.887,122.176 57.768,121.212 C59.266,122.363 61.381,122.949 63.063,123.277 C65.056,123.666 67.522,123.69 69.502,122.878 C69.573,124.71 69.844,126.515 67.888,127.623 C66.199,128.58 63.936,128.112 62.187,127.625 C60.387,127.122 58.418,126.155 57.294,124.608 Z M69.593,128.196 C68.871,129.471 68.739,130.747 67.528,131.83 C66.368,132.868 64.647,133.071 63.164,132.965 C59.992,132.741 58.061,130.58 58.781,127.579 C59.598,128.086 60.47,128.493 61.26,128.811 C63.591,129.749 66.57,130.05 68.829,128.77 C69.109,128.612 69.363,128.417 69.593,128.196 Z M1.786,161.026 C-0.276,153.779 6.126,146.44 11.672,142.873 C22.086,136.171 34.511,136.923 45.67,140.742 C44.123,142.921 42.768,145.328 41.638,147.872 C33.304,142.632 19.389,146.069 13.785,153.741 C9.375,159.78 18.553,164.085 23.902,165.188 C22.185,167.26 20.896,169.884 20.312,172.49 C13.09,170.277 4.264,169.734 1.786,161.026 Z M35.399,179.504 C31.898,182.718 26.791,183.201 23.294,180.712 C20.072,176.713 21.775,169.42 25.436,165.424 C25.506,165.431 25.58,165.439 25.646,165.444 C26.039,165.473 26.175,165.087 26.059,164.795 C28.251,162.75 31.013,161.877 33.816,163.395 C35.868,164.505 37.228,166.252 37.963,168.232 C38.088,169.622 38.301,170.984 38.608,172.301 C38.501,174.993 37.409,177.66 35.399,179.504 Z M37.829,165.06 C37.185,164.183 36.428,163.372 35.53,162.681 C31.813,159.819 27.825,161.146 24.814,164.185 C19.068,162.237 9.831,158.872 17.079,152.194 C24.202,145.633 32.884,147.008 41.405,148.395 C39.138,153.683 37.847,159.513 37.829,165.06 Z M44.163,200.422 C44.784,200.709 45.433,200.932 46.049,201.092 C47.396,201.444 49.013,201.585 50.394,201.133 C50.549,201.781 50.894,202.42 50.487,203.15 C50.04,203.951 48.89,204.216 48.056,204.256 C45.623,204.377 44.079,202.654 44.163,200.422 Z M59.852,222.15 C56.382,228.789 42.678,228.964 39.984,221.63 C37.693,215.391 46.409,209.678 51.666,210.713 C57.146,211.789 60.888,217.165 59.852,222.15 Z M51.957,207.882 C52.001,208.29 51.919,208.819 51.897,209.322 C49.692,208.941 47.394,209.244 45.317,210.1 C44.715,209.31 44.236,208.722 44.271,207.522 C44.302,206.439 44.862,205.729 45.398,204.915 C46.155,205.326 47.06,205.566 48.055,205.573 C49.05,205.582 50.038,205.301 50.796,204.694 C51.375,205.69 51.83,206.709 51.957,207.882 Z M50.747,199.617 C49.526,200.384 47.707,200.195 46.375,199.909 C44.956,199.606 43.331,198.952 42.494,197.699 C41.676,196.474 42.439,195.311 43.187,194.276 C44.206,195.518 45.884,196.074 47.448,196.222 C48.639,196.332 49.93,196.144 51.05,195.637 C51.617,196.897 52.158,198.731 50.747,199.617 Z M51.442,193.94 C50.278,194.74 48.831,194.968 47.448,194.878 C45.967,194.781 44.516,194.055 43.724,192.779 C42.765,191.229 43.479,189.621 43.51,188.029 C44.379,188.982 45.533,189.749 46.542,190.322 C48.265,191.301 50.402,192.032 52.407,191.711 C52.418,192.575 52.442,193.253 51.442,193.94 Z M52.241,190.39 C50.667,190.796 48.796,190.07 47.406,189.394 C45.901,188.661 44.468,187.604 43.54,186.192 C42.637,184.817 43.334,183.772 44.36,182.915 C46.32,184.805 48.755,186.313 51.715,187.308 C52.462,187.56 53.239,187.755 54.028,187.92 C53.913,189.064 53.621,190.034 52.241,190.39 Z M72.102,186.645 C73.511,186.269 74.871,185.861 76.145,185.438 C77.345,185.039 78.502,184.556 79.601,183.992 C79.604,184.012 79.598,184.028 79.603,184.05 C80.135,186.615 78.557,188.102 76.152,188.528 C74.546,188.814 72.528,188.294 72.102,186.645 Z M73.341,189.559 C74.251,189.909 75.297,190.06 76.109,190.011 C77.783,189.911 79.252,189.182 80.145,188.06 C80.311,189.222 80.777,190.239 80.19,191.495 C79.704,192.535 78.695,193.099 77.631,193.378 C74.93,194.086 73.375,192.037 73.341,189.559 Z M89.442,221.616 C85.972,228.256 72.268,228.43 69.575,221.096 C67.283,214.859 75.999,209.146 81.256,210.179 C86.734,211.257 90.477,216.632 89.442,221.616 Z M83.796,208.127 C83.737,208.525 83.539,208.916 83.407,209.307 C80.61,208.255 77.479,208.461 74.751,209.627 C74.683,209.013 74.535,208.419 74.573,207.786 C74.597,207.375 74.698,206.991 74.894,206.629 C74.961,206.505 75.048,206.403 75.139,206.303 C76.204,207.233 77.677,207.749 79.034,207.715 C80.661,207.676 82.233,206.7 83.257,205.402 C83.711,206.247 83.94,207.144 83.796,208.127 Z M83.065,203.873 C82.411,205.248 80.98,206.135 79.543,206.467 C78.063,206.81 76.527,206.098 75.512,205.055 C75.081,204.613 74.828,204.051 74.813,203.437 C74.799,202.881 75.388,202.468 75.888,202.162 C76.627,202.585 77.564,202.77 78.491,202.651 C80.101,202.444 81.294,201.58 82.021,200.394 C83.138,201.372 83.831,202.263 83.065,203.873 Z M75.491,198.699 C76.785,198.935 78.249,198.578 79.382,198.116 C80.241,197.764 81.094,197.219 81.806,196.568 C82.014,198.834 80.985,200.683 78.739,201.359 C76.725,201.964 75.338,200.875 75.503,198.823 C75.508,198.777 75.5,198.738 75.491,198.699 Z M81.154,192.059 C81.206,191.954 81.246,191.831 81.289,191.714 C83.961,193.614 81.105,196.097 78.856,196.981 C77.693,197.438 76.154,197.766 74.96,197.232 C73.599,196.624 73.503,194.842 73.584,193.44 C74.571,194.416 76.097,194.893 77.761,194.628 C79.212,194.397 80.517,193.359 81.154,192.059 Z M86.979,171.706 C86.148,176.975 82.662,180.493 77.968,182.697 C71.062,185.938 61.182,187.271 53.718,185.678 C42.13,183.203 39.529,170.13 40.578,160.07 C41.732,149.002 47.779,136.942 57.764,131.371 C58.604,132.87 60.419,134.038 62.27,134.395 C64.187,134.766 66.211,134.436 67.879,133.423 C68.64,132.961 69.41,132.128 69.925,131.18 C75.062,134.69 79.917,140.249 82.773,146.023 C82.592,146.307 82.75,146.788 83.15,146.796 C86.814,154.582 88.264,163.565 86.979,171.706 Z" fill="#332E2B"></path>
                    <path d="M152.863,67.243 C151.004,67.241 149.782,69.277 148.916,70.657 C147.721,72.562 146.741,74.619 146.055,76.762 C145.039,76.286 143.976,75.899 142.901,75.615 C143.149,74.648 142.975,73.366 142.996,72.546 C143.05,70.476 143.057,68.353 142.714,66.303 C142.343,64.099 140.946,59.673 137.775,60.349 C133.514,61.258 136.004,71.478 136.795,75.27 C136.593,75.311 136.399,75.365 136.203,75.418 C136.156,75.396 136.102,75.391 136.043,75.416 C135.988,75.44 135.943,75.47 135.889,75.494 C133.705,76.155 131.967,77.617 131.205,80.11 C131.204,80.113 131.205,80.117 131.204,80.12 C129.644,83.849 130.895,88.557 134.16,91.942 C139.522,97.5 148.701,95.185 152.397,88.866 C154.111,85.934 153.345,83.021 151.318,80.631 C153.422,78.201 155.233,75.461 155.571,72.194 C155.73,70.666 154.961,67.245 152.863,67.243 Z M137.43,62.102 C138.344,60.287 140.517,63.494 140.816,64.261 C141.42,65.806 141.504,67.548 141.582,69.186 C141.647,70.529 141.043,73.455 141.389,75.291 C140.068,75.068 138.765,75.016 137.543,75.164 C137.748,70.979 135.496,65.943 137.43,62.102 Z M151.497,86.872 C150.912,89.639 147.963,91.49 145.678,92.71 C142.346,94.49 138.51,93.621 135.716,91.32 C131.797,88.092 130.645,82.564 133.127,78.655 C135.788,76.061 139.77,76.136 143.405,77.319 C147.26,78.573 152.488,82.179 151.497,86.872 Z M153.916,73.282 C153.471,75.655 151.83,77.725 150.471,79.735 C149.377,78.681 148.045,77.758 146.586,77.019 C148.333,74.482 149.462,71.47 151.723,69.322 C153.873,67.279 154.14,72.089 153.916,73.282 Z" fill="#332E2B"></path>
                </g>
            </g>
            <path d="M55.198,15.689 C57.91,20.227 57.98,26.881 50.142,31.565 C42.303,36.247 29.522,37.186 26.812,32.648 C24.1,28.11 28.257,20.634 36.096,15.951 C43.935,11.269 52.487,11.15 55.198,15.689 Z" id="Shape" fill="#E9F2F2"></path>
        </g>
    </g>
</svg>