<?xml version="1.0" encoding="utf-8"?>
<!-- Generator: Adobe Illustrator 17.0.0, SVG Export Plug-In . SVG Version: 6.00 Build 0)  -->
<!DOCTYPE svg PUBLIC "-//W3C//DTD SVG 1.1//EN" "http://www.w3.org/Graphics/SVG/1.1/DTD/svg11.dtd">
<svg version="1.1" id="Слой_1" xmlns="http://www.w3.org/2000/svg" xmlns:xlink="http://www.w3.org/1999/xlink" x="0px" y="0px"
	 width="1000px" height="500px" viewBox="0 0 1000 500" enable-background="new 0 0 1000 500" xml:space="preserve">
<g>
	<defs>
		<rect id="SVGID_1_" width="1000.312" height="256.601"/>
	</defs>
	<clipPath id="SVGID_2_">
		<use xlink:href="#SVGID_1_"  overflow="visible"/>
	</clipPath>
	<rect clip-path="url(#SVGID_2_)" fill="none" width="1000.312" height="256.601"/>
	<rect clip-path="url(#SVGID_2_)" fill="none" width="1000.312" height="256.601"/>
	<g clip-path="url(#SVGID_2_)">
		<path opacity="0.3" fill="#373D49" enable-background="new    " d="M537.144,226.989c0,2.362-1.915,4.277-4.277,4.277h-67.734
			c-2.362,0-4.277-1.915-4.277-4.277v-56.123c0-2.362,1.915-4.277,4.277-4.277h67.734c2.362,0,4.277,1.915,4.277,4.277V226.989z"/>
		<path fill="#3D3D3D" d="M532.124,221.483c0,2.051-1.662,3.714-3.714,3.714h-58.822c-2.051,0-3.714-1.662-3.714-3.714v-48.738
			c0-2.051,1.662-3.714,3.714-3.714h58.822c2.051,0,3.714,1.662,3.714,3.714V221.483z"/>
		<path fill="#5D5D5D" d="M532.124,216.391c0,2.051-1.662,3.714-3.714,3.714h-58.822c-2.051,0-3.714-1.662-3.714-3.714v-48.738
			c0-2.051,1.662-3.714,3.714-3.714h58.822c2.051,0,3.714,1.662,3.714,3.714V216.391z"/>
		<g>
			<path opacity="0.3" fill="#373D49" enable-background="new    " d="M530.676,231.793c-2.236-6.833-5.88-2.51-5.88-2.51
				s-0.888-2.691-3.048-2.547c-2.16,0.143-3.54,2.34-3.54,2.34s-0.179-2.373-2.375-2.442s-3.751,2.376-3.751,2.376
				s0.238-11.616-2.099-12.535c-2.338-0.919-5.311,0.889-4.381,12.965c0.559,5.945,1.53,9.136,1.53,9.136s-3.331-2.937-6.906-0.809
				c-3.575,2.128-3.004,8.148,1.067,6.374c2.897-1.262,3.876,1.887,6.391,4.413c-1.885,3.737,0.11,9.148,5.472,11.084
				c7.217,2.606,14.119-0.949,15.515-5.597c0.852-2.836,0.017-5.126-0.763-6.483c0.477-0.65,0.922-1.377,1.327-2.2
				C529.234,245.358,532.912,238.626,530.676,231.793z"/>
			<g>
				<path fill="#D9D8D6" d="M528.574,244.511c0,0,3.135,3.187,1.738,7.835c-1.396,4.648-8.297,8.204-15.515,5.597
					c-7.218-2.606-8.341-11.51-2.104-14.15C518.931,241.154,528.574,244.511,528.574,244.511z"/>
				<path fill="#FFFFFF" d="M530.876,243.664c0,0,3.678-6.732,1.442-13.565c-2.236-6.833-5.881-2.51-5.881-2.51
					s-0.888-2.691-3.047-2.548c-2.16,0.143-3.54,2.34-3.54,2.34s-0.179-2.373-2.374-2.442c-2.196-0.069-3.752,2.376-3.752,2.376
					s0.239-11.616-2.099-12.535s-5.312,0.889-4.382,12.965c0.559,5.946,1.53,9.136,1.53,9.136s-3.331-2.936-6.906-0.809
					c-3.575,2.128-3.004,8.148,1.068,6.374c4.071-1.774,4.353,5.169,10.439,6.843C520.116,251.145,527.129,251.281,530.876,243.664z
					"/>
			</g>
		</g>
	</g>
	<rect clip-path="url(#SVGID_2_)" fill="none" width="1000.312" height="256.601"/>
	<circle clip-path="url(#SVGID_2_)" fill="#FFFFFF" cx="888.164" cy="-27.154" r="185.514"/>
	<rect clip-path="url(#SVGID_2_)" fill="none" width="1000.312" height="256.601"/>
	<circle clip-path="url(#SVGID_2_)" fill="#FFFFFF" cx="741.259" cy="25.26" r="104.793"/>
	<rect clip-path="url(#SVGID_2_)" fill="none" width="1000.312" height="256.601"/>
	<circle clip-path="url(#SVGID_2_)" fill="#FFFFFF" cx="628.303" cy="6.761" r="131.779"/>
	<rect clip-path="url(#SVGID_2_)" fill="none" width="1000.312" height="256.601"/>
	<circle clip-path="url(#SVGID_2_)" fill="#FFFFFF" cx="351.066" cy="-73.486" r="215.459"/>
	<rect clip-path="url(#SVGID_2_)" fill="none" width="1000.312" height="256.601"/>
	<circle clip-path="url(#SVGID_2_)" fill="#FFFFFF" cx="216.473" cy="-7.429" r="80.865"/>
	<rect clip-path="url(#SVGID_2_)" fill="none" width="1000.312" height="256.601"/>
	<circle clip-path="url(#SVGID_2_)" fill="#FFFFFF" cx="132.607" cy="-7.429" r="158.01"/>
	<rect clip-path="url(#SVGID_2_)" fill="none" width="1000.312" height="256.601"/>
	
		<polygon clip-path="url(#SVGID_2_)" fill="#FFFFFF" stroke="#FFFFFF" stroke-width="2" stroke-linecap="round" stroke-linejoin="round" stroke-miterlimit="10" points="
		558.545,57.71 499.026,140.974 448.663,57.71 	"/>
	<rect clip-path="url(#SVGID_2_)" fill="none" width="1000.312" height="256.601"/>
	<rect y="-170.314" clip-path="url(#SVGID_2_)" fill="none" width="1000" height="149.595"/>
	<rect clip-path="url(#SVGID_2_)" fill="none" width="1000.312" height="256.601"/>
	<rect x="186" clip-path="url(#SVGID_2_)" fill="#FFFFFF" width="664" height="91.647"/>
	<rect clip-path="url(#SVGID_2_)" fill="none" width="1000.312" height="256.601"/>
	<g clip-path="url(#SVGID_2_)">
		<path fill="#FFFFFF" d="M504.642,172.172l-0.42,1.344l-0.421,1.347l-0.386,1.235l-0.386,1.235l-0.386,1.235l-0.386,1.235h3.087
			l-1.019,2.358l-1.019,2.358l-1.019,2.358l-1.019,2.358l-1.019,2.358l-1.019,2.358l-0.208,0.482
			c0.312,0.014,0.628,0.024,0.954,0.024c7.661,0,11.492-3.815,11.492-11.446C511.47,177.132,509.192,173.52,504.642,172.172z"/>
		<path fill="#FFFFFF" d="M497.739,192.293l0.136-1.594l0.136-1.594l0.068-0.797l0.068-0.797l0.068-0.797l0.068-0.797h-1.591h-1.591
			l0.288-1l0.288-1l0.574-1.999l0.574-1.999l0.288-1l0.288-1l0.288-1l0.288-1l0.288-1l0.288-1l0.336-1.17l0.336-1.17
			c-3.563,0.124-6.236,1.138-8.018,3.044c-1.782,1.905-2.673,4.701-2.673,8.388c0,1.436,0.135,2.735,0.404,3.9
			c0.269,1.165,0.675,2.196,1.215,3.09l-0.285,3.992l4.218-0.594c0.51,0.223,1.055,0.41,1.636,0.561
			c0.58,0.153,1.196,0.268,1.847,0.35l0.017-0.213l0.018-0.213l0.068-0.797L497.739,192.293z"/>
	</g>
	<rect clip-path="url(#SVGID_2_)" fill="none" width="1000.312" height="256.601"/>
	<path clip-path="url(#SVGID_2_)" fill="#5D5D5D" d="M74.18,67.999c-1.26,1.228-2.51,2.435-3.748,3.652
		c-0.433,0.426-0.919,0.662-1.54,0.629c-0.424-0.023-0.661-0.209-0.791-0.611c-0.948-2.943-1.911-5.879-2.854-8.825
		c-0.092-0.286-0.227-0.425-0.516-0.514c-2.234-0.682-4.464-1.38-6.69-2.088c-0.343-0.109-0.688-0.252-0.984-0.453
		c-0.457-0.31-0.524-0.815-0.114-1.179c0.379-0.335,0.831-0.628,1.301-0.814c2.731-1.082,5.476-2.129,8.217-3.186
		c6.956-2.686,13.913-5.369,20.87-8.055c1.323-0.511,2.34,0.209,2.202,1.639c-0.088,0.915-0.325,1.815-0.516,2.719
		c-1.511,7.132-3.023,14.265-4.541,21.396c-0.361,1.693-1.55,2.135-2.943,1.108c-2.334-1.72-4.665-3.446-6.998-5.169
		C74.423,68.166,74.308,68.088,74.18,67.999z M68.942,70.164c0.026-0.007,0.052-0.015,0.079-0.021
		c0.015-0.067,0.036-0.132,0.041-0.199c0.15-1.617,0.308-3.233,0.439-4.852c0.029-0.361,0.153-0.617,0.424-0.86
		c2.151-1.924,4.289-3.86,6.432-5.791c2.372-2.139,4.744-4.276,7.107-6.423c0.146-0.132,0.207-0.358,0.308-0.541
		c-0.223-0.024-0.461-0.113-0.663-0.061c-0.276,0.071-0.537,0.231-0.783,0.386c-5.234,3.297-10.464,6.599-15.702,9.889
		c-0.296,0.186-0.351,0.344-0.239,0.669c0.386,1.109,0.737,2.228,1.102,3.345C67.972,67.193,68.457,68.678,68.942,70.164z"/>
	<g clip-path="url(#SVGID_2_)" enable-background="new    ">
		<text transform="matrix(1 0 0 1 98.1471 64.4115)" fill="#5D5D5D" font-family="'PTSans-Regular'" font-size="14">Telegram</text>
	</g>
	<g clip-path="url(#SVGID_2_)" enable-background="new    ">
		<text transform="matrix(1 0 0 1 479.1962 210.4115)" fill="#FFFFFF" font-family="'PTSans-Regular'" font-size="14">Flomni</text>
	</g>
	<rect clip-path="url(#SVGID_2_)" fill="none" width="1000.312" height="256.601"/>
	<g clip-path="url(#SVGID_2_)">
		<g>
			<g>
				<path fill="#5D5D5D" d="M269.415,45.231c-0.923-0.849-4.651-3.556-12.956-3.593c0,0-9.794-0.591-14.568,3.789
					c-2.657,2.658-3.593,6.546-3.691,11.369c-0.098,4.823-0.226,13.859,8.484,16.309c0.003,0.001,0.006,0.002,0.008,0.002
					l-0.005,3.739c0,0-0.055,1.514,0.941,1.823c1.205,0.374,1.913-0.777,3.065-2.017c0.632-0.681,1.504-1.681,2.162-2.445
					c5.958,0.499,10.539-0.645,11.059-0.814c1.203-0.391,8.01-1.262,9.117-10.298C274.173,53.78,272.478,47.889,269.415,45.231z
					 M270.424,62.423c-0.937,7.545-6.455,8.021-7.473,8.348c-0.433,0.139-4.458,1.14-9.518,0.81c0,0-3.771,4.549-4.948,5.732
					c-0.184,0.185-0.4,0.259-0.545,0.224c-0.203-0.049-0.259-0.289-0.256-0.64c0.003-0.502,0.032-6.213,0.032-6.213
					c-0.006-0.002-0.004-0.001-0.001,0c-7.367-2.047-6.937-9.739-6.854-13.766s0.84-7.327,3.088-9.546
					c4.038-3.657,12.356-3.111,12.356-3.111c7.025,0.031,10.391,2.146,11.172,2.855C270.069,49.334,271.39,54.644,270.424,62.423z"
					/>
			</g>
			<g>
				<path fill="#5D5D5D" d="M259.877,57.056c-0.249,0-0.456-0.195-0.469-0.446c-0.079-1.594-0.83-2.374-2.363-2.457
					c-0.259-0.014-0.458-0.235-0.444-0.494s0.236-0.456,0.494-0.444c2.023,0.109,3.147,1.266,3.251,3.348
					c0.013,0.259-0.187,0.479-0.446,0.492C259.893,57.055,259.885,57.056,259.877,57.056z"/>
			</g>
			<g>
				<path fill="#5D5D5D" d="M262.287,57.863c-0.004,0-0.007,0-0.011,0c-0.259-0.006-0.465-0.221-0.459-0.48
					c0.036-1.605-0.422-2.905-1.402-3.973c-0.975-1.066-2.314-1.648-4.093-1.778c-0.259-0.019-0.453-0.244-0.434-0.503
					s0.244-0.453,0.503-0.434c2.001,0.147,3.588,0.847,4.717,2.081c1.135,1.238,1.689,2.795,1.648,4.629
					C262.751,57.66,262.542,57.863,262.287,57.863z"/>
			</g>
			<g>
				<path fill="#5D5D5D" d="M264.755,58.828c-0.258,0-0.467-0.208-0.469-0.466c-0.022-2.871-0.849-5.064-2.528-6.703
					c-1.659-1.616-3.755-2.445-6.23-2.463c-0.259-0.002-0.468-0.214-0.466-0.473c0.002-0.258,0.212-0.466,0.469-0.466
					c0.001,0,0.002,0,0.003,0c2.726,0.02,5.04,0.938,6.879,2.729c1.842,1.798,2.788,4.277,2.811,7.368
					c0.002,0.259-0.207,0.471-0.466,0.473C264.757,58.828,264.756,58.828,264.755,58.828z"/>
			</g>
			<g>
				<path fill="#5D5D5D" d="M257.164,62.876c0,0,0.66,0.058,1.016-0.382l0.693-0.872c0.333-0.433,1.141-0.708,1.931-0.268
					c0.44,0.248,1.229,0.736,1.724,1.1c0.524,0.386,1.598,1.28,1.601,1.283c0.512,0.432,0.63,1.065,0.282,1.734
					c0,0.003-0.003,0.01-0.003,0.014c-0.358,0.632-0.836,1.224-1.442,1.776c-0.007,0.003-0.007,0.007-0.013,0.01
					c-0.497,0.415-0.986,0.65-1.465,0.708c-0.057,0.011-0.127,0.016-0.214,0.013c-0.209,0.002-0.417-0.029-0.623-0.096l-0.016-0.023
					c-0.739-0.209-1.972-0.73-4.027-1.863c-1.335-0.736-2.445-1.487-3.383-2.235c-0.495-0.391-1.005-0.835-1.522-1.349
					c-0.017-0.017-0.034-0.034-0.051-0.051s-0.034-0.034-0.051-0.051l0,0l0,0c-0.017-0.017-0.034-0.034-0.051-0.051
					s-0.034-0.034-0.051-0.051c-0.514-0.517-0.958-1.026-1.349-1.522c-0.748-0.937-1.499-2.048-2.235-3.383
					c-1.133-2.055-1.655-3.288-1.863-4.027l-0.023-0.016c-0.067-0.206-0.098-0.413-0.096-0.623
					c-0.003-0.086,0.002-0.157,0.013-0.214c0.058-0.479,0.293-0.968,0.708-1.465c0.003-0.006,0.007-0.006,0.01-0.013
					c0.552-0.605,1.144-1.084,1.776-1.442c0.004,0,0.01-0.003,0.014-0.003c0.669-0.348,1.303-0.23,1.734,0.282
					c0.003,0.003,0.897,1.077,1.283,1.601c0.364,0.494,0.852,1.283,1.1,1.724c0.44,0.79,0.165,1.598-0.268,1.931l-0.872,0.693
					c-0.44,0.355-0.382,1.016-0.382,1.016S252.338,61.645,257.164,62.876z"/>
			</g>
		</g>
		<text transform="matrix(1 0 0 1 286.2281 64.4112)" fill="#5D5D5D" font-family="'PTSans-Regular'" font-size="14">Viber</text>
	</g>
	<rect clip-path="url(#SVGID_2_)" fill="none" width="1000.312" height="256.601"/>
	<g clip-path="url(#SVGID_2_)">
		<path id="Facebook_Messenger" fill="#5D5D5D" d="M414.305,64.633l-4.597-4.902l-8.969,4.902l9.866-10.473l4.709,4.903l8.857-4.903
			L414.305,64.633z M412.511,42.127c-9.969,0-18.05,7.483-18.05,16.713c0,5.26,2.625,9.951,6.727,13.015v6.373l6.146-3.373
			c1.64,0.454,3.378,0.699,5.178,0.699c9.969,0,18.05-7.483,18.05-16.713S422.48,42.127,412.511,42.127z"/>
		<text transform="matrix(1 0 0 1 441.0708 64.4112)" fill="#5D5D5D" font-family="'PTSans-Regular'" font-size="14">Facebook Messenger</text>
	</g>
	<rect clip-path="url(#SVGID_2_)" fill="none" width="1000.312" height="256.601"/>
	<g clip-path="url(#SVGID_2_)">
		<text transform="matrix(1 0 0 1 910.5647 52.2817)" fill="#439CBA" font-family="'MyriadPro-Regular'" font-size="14">скоро</text>
		<g>
			<g id="g5124">
				<path id="WhatsApp_2_" fill="#5D5D5D" d="M835.964,59.698c0,10.013-8.18,18.13-18.271,18.13c-3.204,0-6.213-0.819-8.832-2.256
					l-10.116,3.214l3.297-9.728c-1.664-2.733-2.621-5.936-2.621-9.361c0-10.013,8.18-18.13,18.272-18.13
					C827.784,41.567,835.964,49.684,835.964,59.698z M817.693,44.455c-8.471,0-15.362,6.838-15.362,15.243
					c0,3.335,1.087,6.424,2.926,8.937l-1.919,5.66l5.903-1.876c2.426,1.592,5.331,2.521,8.451,2.521
					c8.47,0,15.362-6.838,15.362-15.242S826.163,44.455,817.693,44.455z M826.919,63.873c-0.113-0.185-0.411-0.296-0.858-0.518
					c-0.448-0.222-2.651-1.298-3.061-1.445c-0.411-0.148-0.71-0.223-1.008,0.222c-0.298,0.446-1.156,1.445-1.418,1.742
					c-0.261,0.297-0.522,0.334-0.97,0.112c-0.447-0.222-1.891-0.691-3.602-2.205c-1.331-1.178-2.23-2.632-2.492-3.077
					c-0.261-0.445-0.028-0.685,0.196-0.906c0.202-0.2,0.448-0.519,0.672-0.778c0.224-0.26,0.298-0.445,0.448-0.741
					c0.15-0.297,0.074-0.556-0.037-0.779c-0.112-0.222-1.008-2.409-1.381-3.298s-0.745-0.741-1.007-0.741
					c-0.261,0-0.56-0.037-0.859-0.037s-0.784,0.112-1.194,0.556c-0.41,0.445-1.567,1.52-1.567,3.706c0,2.187,1.604,4.3,1.829,4.596
					c0.224,0.296,3.097,4.929,7.65,6.709c4.555,1.778,4.555,1.186,5.376,1.111c0.82-0.073,2.649-1.074,3.023-2.112
					C827.03,64.948,827.03,64.058,826.919,63.873L826.919,63.873z"/>
			</g>
			<text transform="matrix(1 0 0 1 846.3597 64.4113)" fill="#5D5D5D" font-family="'PTSans-Regular'" font-size="14">WhatsApp</text>
		</g>
	</g>
	<g clip-path="url(#SVGID_2_)">
		<path fill="#5D5D5D" d="M644.69,71.363h2.364c0,0,0.714-0.079,1.079-0.471c0.336-0.361,0.325-1.038,0.325-1.038
			s-0.047-3.172,1.426-3.639c1.451-0.46,3.315,3.065,5.29,4.421c1.494,1.026,2.629,0.801,2.629,0.801l5.281-0.074
			c0,0,2.762-0.171,1.452-2.343c-0.107-0.177-0.763-1.607-3.927-4.543c-3.312-3.074-2.868-2.577,1.121-7.893
			c2.429-3.238,3.401-5.214,3.097-6.061c-0.289-0.807-2.076-0.594-2.076-0.594l-5.947,0.037c0,0-0.44-0.06-0.768,0.135
			c-0.319,0.192-0.524,0.638-0.524,0.638s-0.942,2.506-2.197,4.636c-2.647,4.496-3.706,4.734-4.139,4.454
			c-1.007-0.651-0.755-2.613-0.755-4.008c0-4.357,0.661-6.174-1.287-6.644c-0.646-0.156-1.122-0.26-2.776-0.276
			c-2.121-0.022-3.917,0.007-4.934,0.505c-0.676,0.332-1.199,1.07-0.88,1.112c0.393,0.052,1.283,0.24,1.755,0.882
			c0.609,0.829,0.588,2.691,0.588,2.691s0.35,5.129-0.818,5.766c-0.802,0.437-1.901-0.455-4.262-4.534
			c-1.209-2.089-2.122-4.399-2.122-4.399s-0.176-0.431-0.49-0.662c-0.381-0.28-0.914-0.369-0.914-0.369l-5.651,0.037
			c0,0-0.848,0.024-1.159,0.393c-0.278,0.328-0.022,1.007-0.022,1.007s4.423,10.35,9.432,15.565
			C639.475,71.677,644.69,71.363,644.69,71.363L644.69,71.363L644.69,71.363z"/>
		<text transform="matrix(1 0 0 1 675.1191 64.4115)" fill="#5D5D5D" font-family="'PTSans-Regular'" font-size="14">VKontakte</text>
	</g>
</g>
</svg>
